<svg width="1107" height="408" viewBox="0 0 1107 408" fill="none" xmlns="http://www.w3.org/2000/svg">
<rect width="1107" height="408" fill="white"/>
<path d="M89.608 217.576C91.464 215.4 92.728 213.608 93.4 212.2C94.104 210.76 94.552 208.968 94.744 206.824H88.024V203.32H94.888V200.488V193.912H89.56V190.408H94.888V183.016H98.344V190.408H107.368V182.968H110.824V190.408H116.44V193.912H110.824V203.32H118.12V206.824H110.824V219.208H107.368V206.824H98.152C97.96 209.672 97.464 211.976 96.664 213.736C95.896 215.464 94.52 217.464 92.536 219.736L89.608 217.576ZM84.424 194.92C83.688 193.864 82.616 192.424 81.208 190.6C79.832 188.744 78.616 187.16 77.56 185.848L80.248 183.592C83.128 187.144 85.448 190.088 87.208 192.424L84.424 194.92ZM98.344 200.152C98.344 201.624 98.328 202.68 98.296 203.32H107.368V193.912H98.344V200.152ZM118.216 221.224L117.304 224.824H96.904C94.6 224.824 92.712 224.68 91.24 224.392C89.768 224.104 88.424 223.56 87.208 222.76C85.992 221.928 84.744 220.712 83.464 219.112L77.656 225.304L75.544 221.896L81.448 215.608V202.744H76.12V199.144H85.096V215.608C86.184 217.208 87.272 218.408 88.36 219.208C89.48 220.008 90.728 220.552 92.104 220.84C93.48 221.096 95.256 221.224 97.432 221.224H118.216ZM138.088 211.672C137.512 211.096 136.024 209.72 133.624 207.544V226.264H130.408V206.968C128.872 210.968 127.08 214.52 125.032 217.624L123.064 214.504C124.568 212.296 125.912 209.896 127.096 207.304C128.312 204.68 129.336 202.072 130.168 199.48H124.12V195.88H130.408V189.16L124.6 190.072L124.312 186.664C130.328 185.768 135.208 184.856 138.952 183.928L139.768 187.336C138.072 187.752 136.024 188.168 133.624 188.584V195.88H139.48V199.48H133.624V203.416L140.152 209.08L138.088 211.672ZM141.832 185.08H163.048V198.184H141.832V185.08ZM145.288 195.016H159.592V188.2H145.288V195.016ZM154.216 214.936V220.888H166.312V224.296H138.088V220.888H150.664V214.936H140.968V211.72H150.664V205.768H140.248V202.6H164.92V205.768H154.216V211.72H163.72V214.936H154.216Z" fill="black"/>
<path d="M743.856 189.88V219.592C743.856 221.192 743.68 222.392 743.328 223.192C742.976 224.024 742.352 224.584 741.456 224.872C740.56 225.192 739.248 225.352 737.52 225.352H731.472L730.752 221.704H736.416C737.568 221.704 738.4 221.624 738.912 221.464C739.456 221.304 739.808 221 739.968 220.552C740.16 220.104 740.256 219.384 740.256 218.392V193.528H727.824C727.76 195.96 727.504 198.152 727.056 200.104C729.168 202.152 733.104 206.152 738.864 212.104L736.32 214.984C733.792 212.232 730.256 208.52 725.712 203.848C724.784 205.896 723.488 207.896 721.824 209.848C720.16 211.768 718.016 213.768 715.392 215.848L712.992 212.728C715.872 210.488 718.112 208.408 719.712 206.488C721.312 204.568 722.448 202.6 723.12 200.584C723.792 198.568 724.16 196.216 724.224 193.528H711.792V225.832H708.144V189.88H724.224V182.536H727.824V189.88H743.856ZM795.024 188.776V192.232H780.72C779.76 193.768 778.672 195.352 777.456 196.984C776.24 198.616 775.184 199.928 774.288 200.92L783.12 200.392C784.368 198.76 785.696 196.744 787.104 194.344L790.032 196.072C787.44 200.68 784.368 204.712 780.816 208.168C777.264 211.592 773.152 214.536 768.48 217L766.608 213.88C769.488 212.376 772.016 210.84 774.192 209.272C776.368 207.672 778.368 205.896 780.192 203.944L769.872 204.568L768.96 201.448C771.648 199.112 774.176 196.04 776.544 192.232H768.624V188.776H780.096C779.616 187.208 778.944 185.224 778.08 182.824L781.728 181.96C782.528 184.04 783.312 186.312 784.08 188.776H795.024ZM766.512 207.928L762.624 204.28V226.36H759.168V203.56C757.408 208.136 755.504 211.976 753.456 215.08L752.304 210.52C753.424 208.856 754.608 206.632 755.856 203.848C757.136 201.032 758.224 198.232 759.12 195.448H753.648V191.944H759.168V182.824H762.624V191.944H767.52V195.448H762.624V200.104L768.576 205.336L766.512 207.928ZM793.68 205.432C791.248 209.272 788.624 212.568 785.808 215.32C788.496 217.624 791.536 220.328 794.928 223.432L792.48 226.264C791.36 225.176 788.944 222.952 785.232 219.592L783.168 217.72C779.52 220.824 774.848 223.704 769.152 226.36L766.992 223.24C772.592 220.808 777.184 218.12 780.768 215.176C784.352 212.232 787.632 208.376 790.608 203.608L793.68 205.432ZM836.112 225.88C834.256 222.776 832.816 219.304 831.792 215.464C830.8 211.624 830.304 207.896 830.304 204.28C830.304 200.632 830.8 196.904 831.792 193.096C832.816 189.256 834.256 185.784 836.112 182.68H840.096C838.24 185.912 836.8 189.448 835.776 193.288C834.784 197.096 834.288 200.76 834.288 204.28C834.288 207.768 834.784 211.432 835.776 215.272C836.8 219.112 838.24 222.648 840.096 225.88H836.112ZM876.624 223H871.248L855.888 205.528L853.92 207.448V223H849.792V186.52H853.92V202.12L869.664 186.52H875.28L858.816 202.648L876.624 223ZM899.404 208.12C899.404 209.24 899.308 210.328 899.116 211.384H881.164C881.324 214.04 882.108 216.136 883.516 217.672C884.924 219.208 886.796 219.976 889.132 219.976C890.444 219.976 891.676 219.656 892.828 219.016C893.98 218.376 894.972 217.432 895.804 216.184L898.924 218.344C896.652 221.864 893.388 223.624 889.132 223.624C885.388 223.624 882.428 222.44 880.252 220.072C878.108 217.704 877.036 214.456 877.036 210.328C877.036 206.168 878.06 202.888 880.108 200.488C882.156 198.088 884.972 196.888 888.556 196.888C891.916 196.888 894.556 197.896 896.476 199.912C898.428 201.928 899.404 204.664 899.404 208.12ZM895.324 207.784C895.324 205.576 894.7 203.816 893.452 202.504C892.236 201.192 890.604 200.536 888.556 200.536C886.636 200.536 885.036 201.176 883.756 202.456C882.476 203.736 881.66 205.512 881.308 207.784H895.324ZM905.05 223V197.56H909.034V202.408H909.274C910.33 200.68 911.674 199.336 913.306 198.376C914.938 197.384 916.746 196.888 918.73 196.888H919.066V201.208H918.634C916.682 201.208 914.986 201.528 913.546 202.168C912.106 202.808 910.986 203.688 910.186 204.808C909.418 205.896 909.034 207.08 909.034 208.36V223H905.05ZM923.144 223V197.56H927.128V201.16H927.368C928.136 199.88 929.256 198.856 930.728 198.088C932.232 197.288 933.736 196.888 935.24 196.888C938.056 196.888 940.264 197.768 941.864 199.528C943.464 201.256 944.264 203.704 944.264 206.872V223H940.28V207.448C940.28 205.4 939.704 203.736 938.552 202.456C937.4 201.176 935.96 200.536 934.232 200.536C932.12 200.536 930.408 201.224 929.096 202.6C927.784 203.944 927.128 205.72 927.128 207.928V223H923.144ZM972.06 208.12C972.06 209.24 971.964 210.328 971.772 211.384H953.82C953.98 214.04 954.764 216.136 956.172 217.672C957.58 219.208 959.452 219.976 961.788 219.976C963.1 219.976 964.332 219.656 965.484 219.016C966.636 218.376 967.628 217.432 968.46 216.184L971.58 218.344C969.308 221.864 966.044 223.624 961.788 223.624C958.044 223.624 955.084 222.44 952.908 220.072C950.764 217.704 949.692 214.456 949.692 210.328C949.692 206.168 950.716 202.888 952.764 200.488C954.812 198.088 957.628 196.888 961.212 196.888C964.572 196.888 967.212 197.896 969.132 199.912C971.084 201.928 972.06 204.664 972.06 208.12ZM967.98 207.784C967.98 205.576 967.356 203.816 966.108 202.504C964.892 201.192 963.26 200.536 961.212 200.536C959.292 200.536 957.692 201.176 956.412 202.456C955.132 203.736 954.316 205.512 953.964 207.784H967.98ZM977.706 186.52H981.69V217.72C981.69 219.032 982.346 219.688 983.658 219.688H984.858V223.432H982.746C979.386 223.432 977.706 221.88 977.706 218.776V186.52ZM992.06 225.88C993.916 222.648 995.34 219.112 996.332 215.272C997.356 211.432 997.868 207.768 997.868 204.28C997.868 200.76 997.356 197.096 996.332 193.288C995.34 189.448 993.916 185.912 992.06 182.68H996.044C997.9 185.784 999.324 189.256 1000.32 193.096C1001.34 196.904 1001.85 200.632 1001.85 204.28C1001.85 207.896 1001.34 211.624 1000.32 215.464C999.324 219.304 997.9 222.776 996.044 225.88H992.06Z" fill="black"/>
<path d="M686.707 190.707C687.098 190.317 687.098 189.683 686.707 189.293L680.343 182.929C679.953 182.538 679.319 182.538 678.929 182.929C678.538 183.319 678.538 183.953 678.929 184.343L684.586 190L678.929 195.657C678.538 196.047 678.538 196.681 678.929 197.071C679.319 197.462 679.953 197.462 680.343 197.071L686.707 190.707ZM185 191H686V189H185V191Z" fill="black"/>
<path d="M184.293 213.707C183.902 213.317 183.902 212.683 184.293 212.293L190.657 205.929C191.047 205.538 191.681 205.538 192.071 205.929C192.462 206.319 192.462 206.953 192.071 207.343L186.414 213L192.071 218.657C192.462 219.047 192.462 219.681 192.071 220.071C191.681 220.462 191.047 220.462 190.657 220.071L184.293 213.707ZM686 214H185V212H686V214Z" fill="black"/>
<path d="M361.088 154.152V156.328H370.304V158.152H349.824V156.328H358.752V154.152H351.776V152.36H358.752V150.28H350.816V148.456H358.752V146.056H361.088V148.456H369.408V150.28H361.088V152.36H368.608V154.152H361.088ZM347.456 153.832C347.008 153.085 346.411 152.136 345.664 150.984C344.917 149.832 344.245 148.829 343.648 147.976L345.536 146.696C346.005 147.315 346.624 148.2 347.392 149.352C348.181 150.483 348.875 151.517 349.472 152.456L347.456 153.832ZM347.328 169.736L350.112 167.144L350.656 169.704L345.568 174.184L344.128 172.392C344.448 172.093 344.672 171.805 344.8 171.528C344.949 171.251 345.024 170.931 345.024 170.568V158.696H341.984V156.392H347.328V169.736ZM352 174.824V160.296H367.872V171.624C367.872 172.755 367.627 173.533 367.136 173.96C366.645 174.408 365.76 174.632 364.48 174.632H361.088L360.736 172.808H363.744C364.32 172.808 364.736 172.765 364.992 172.68C365.248 172.573 365.408 172.424 365.472 172.232C365.536 172.019 365.568 171.688 365.568 171.24V170.056H354.304V174.824H352ZM365.568 164.296V162.216H354.304V164.296H365.568ZM354.304 166.152V168.2H365.568V166.152H354.304ZM393.824 163.016C395.936 165.64 398.784 167.923 402.368 169.864L400.896 172.2C398.187 170.557 395.904 168.755 394.048 166.792C392.213 164.829 390.624 162.515 389.28 159.848V170.92C389.28 172.285 388.971 173.245 388.352 173.8C387.733 174.355 386.635 174.632 385.056 174.632H381.664L381.152 172.168H384.416C385.419 172.168 386.08 172.04 386.4 171.784C386.741 171.507 386.912 170.973 386.912 170.184V163.848C386.187 164.339 384.523 165.437 381.92 167.144C378.912 169.107 376.683 170.589 375.232 171.592L373.984 169.224C379.829 165.683 384.139 162.899 386.912 160.872V153.48H374.688V151.08H386.912V145.864H389.28V151.08H396.384C395.701 150.504 394.219 149.309 391.936 147.496L393.312 145.8C395.147 147.208 396.683 148.435 397.92 149.48L396.64 151.08H401.696V153.48H389.28V154.536C390.176 157.053 391.253 159.261 392.512 161.16C393.557 160.2 394.635 159.144 395.744 157.992C396.875 156.84 397.835 155.784 398.624 154.824L400.448 156.456C399.552 157.437 398.496 158.536 397.28 159.752C396.064 160.968 394.912 162.056 393.824 163.016ZM378.208 154.632C378.827 155.293 379.659 156.253 380.704 157.512C381.771 158.771 382.635 159.827 383.296 160.68L381.6 162.28C379.083 159.165 377.376 157.149 376.48 156.232L378.208 154.632ZM417.728 160.36L417.824 161.256L413.312 162.568V171.112C413.312 172.072 413.205 172.787 412.992 173.256C412.779 173.747 412.395 174.088 411.84 174.28C411.307 174.472 410.507 174.568 409.44 174.568H406.656L406.176 172.072H408.672C409.333 172.072 409.813 172.029 410.112 171.944C410.411 171.859 410.613 171.699 410.72 171.464C410.827 171.208 410.88 170.803 410.88 170.248V163.304C408.597 163.987 407.104 164.445 406.4 164.68L405.888 162.248L410.88 160.904V154.344H406.368V151.944H410.88V145.928H413.312V151.944H417.408V154.344H413.312V160.2C415.232 159.645 416.64 159.208 417.536 158.888L417.728 160.36ZM434.08 148.36V150.792H428.8V170.728C428.8 172.157 428.469 173.149 427.808 173.704C427.147 174.28 425.973 174.568 424.288 174.568H420.64L420.128 172.104H423.616C424.341 172.104 424.885 172.051 425.248 171.944C425.611 171.837 425.867 171.645 426.016 171.368C426.165 171.091 426.24 170.675 426.24 170.12V150.792H418.24V148.36H434.08ZM466.208 159.208V161.64H459.232V175.08H456.672V161.64H447.776C447.669 163.816 447.381 165.651 446.912 167.144C446.464 168.616 445.76 169.981 444.8 171.24C443.84 172.499 442.464 173.917 440.672 175.496L438.784 173.672C440.469 172.285 441.749 171.037 442.624 169.928C443.52 168.819 444.16 167.635 444.544 166.376C444.949 165.096 445.195 163.517 445.28 161.64H437.728V159.208H445.344V158.696V150.44H439.04V148.04H464.864V150.44H459.232V159.208H466.208ZM447.84 159.208H456.672V150.44H447.84V158.44V159.208ZM496.928 174.984C494.133 173.981 491.68 172.925 489.568 171.816C487.456 170.685 485.6 169.448 484 168.104C482.443 169.427 480.619 170.664 478.528 171.816C476.437 172.947 473.995 174.067 471.2 175.176L470.016 172.552C472.683 171.592 475.008 170.611 476.992 169.608C478.976 168.584 480.683 167.485 482.112 166.312C480.533 164.648 479.189 162.76 478.08 160.648C476.992 158.515 476.075 156.051 475.328 153.256H470.272V150.888H483.552C483.445 150.547 483.04 149.491 482.336 147.72L481.792 146.344L484.384 145.8C484.405 145.843 484.757 146.707 485.44 148.392C485.589 148.755 485.739 149.149 485.888 149.576C486.059 150.003 486.24 150.44 486.432 150.888H497.664V153.256H492.512C491.829 156.051 490.955 158.515 489.888 160.648C488.821 162.76 487.488 164.659 485.888 166.344C487.381 167.539 489.12 168.627 491.104 169.608C493.088 170.568 495.381 171.475 497.984 172.328L496.928 174.984ZM477.888 153.256C478.528 155.667 479.339 157.811 480.32 159.688C481.301 161.544 482.517 163.197 483.968 164.648C485.397 163.176 486.581 161.523 487.52 159.688C488.48 157.832 489.259 155.688 489.856 153.256H477.888ZM530.144 162.728V165.128H522.272V175.208H519.712V165.128H510.112V162.728H519.712V155.048H514.656C513.952 157.288 513.301 159.123 512.704 160.552L510.24 159.464C511.008 157.8 511.733 155.901 512.416 153.768C513.12 151.635 513.685 149.587 514.112 147.624L516.416 148.2C516.053 149.843 515.691 151.315 515.328 152.616H519.712V145.544H522.272V152.616H529.056V155.048H522.272V162.728H530.144ZM510.432 146.408C509.813 148.797 509.003 151.208 508 153.64V175.4H505.568V158.696C504.565 160.552 503.531 162.173 502.464 163.56L501.536 160.68C502.731 158.909 503.947 156.616 505.184 153.8C506.443 150.984 507.413 148.264 508.096 145.64L510.432 146.408Z" fill="black"/>
<path d="M251.936 240.96C251.061 239.744 250.016 238.347 248.8 236.768L247.52 235.04L249.248 233.536C249.76 234.112 250.464 234.976 251.36 236.128C252.256 237.259 253.035 238.272 253.696 239.168L251.936 240.96ZM253.28 255.168C254.155 253.867 254.837 252.619 255.328 251.424C255.819 250.208 256.171 248.853 256.384 247.36C256.597 245.845 256.704 244 256.704 241.824V235.136C259.413 235.051 262.155 234.869 264.928 234.592C267.701 234.315 270.24 233.963 272.544 233.536L272.992 235.968C268.597 236.757 263.947 237.269 259.04 237.504V241.12H272.192V243.424C271.275 246.112 269.771 248.619 267.68 250.944C269.941 252.971 271.765 254.624 273.152 255.904L271.616 257.824C269.248 255.584 267.392 253.835 266.048 252.576C264.064 254.475 261.568 256.213 258.56 257.792L257.216 255.648C259.925 254.261 262.272 252.683 264.256 250.912L259.424 246.432L260.832 244.704L264.96 248.48L265.888 249.312C267.552 247.52 268.8 245.557 269.632 243.424H259.04C258.997 246.325 258.677 248.768 258.08 250.752C257.504 252.715 256.544 254.709 255.2 256.736L253.28 255.168ZM274.176 258.656L273.824 261.088H260.128C258.613 261.088 257.344 260.971 256.32 260.736C255.317 260.523 254.411 260.139 253.6 259.584C252.789 259.008 251.957 258.187 251.104 257.12L246.912 261.696L245.728 259.264L249.76 254.912V246.112H245.984V243.776H252.128V254.752C252.875 255.819 253.632 256.629 254.4 257.184C255.168 257.739 256.021 258.123 256.96 258.336C257.92 258.549 259.125 258.656 260.576 258.656H274.176ZM279.552 262.144V234.528H304.256V262.144H301.824V259.904H281.984V262.144H279.552ZM281.984 237.024V257.504H301.824V237.024H281.984ZM286.112 253.024V241.408H297.696V253.024H286.112ZM288.224 250.784H295.552V243.616H288.224V250.784ZM389.184 232.864V239.136H400.16V252.32H389.184V262.176H386.72V252.32H375.84V239.136H386.72V232.864H389.184ZM378.336 241.632V249.856H386.72V241.632H378.336ZM389.184 241.632V249.856H397.664V241.632H389.184ZM498.08 234.944V237.312H494.112V257.152C494.112 258.368 493.973 259.285 493.696 259.904C493.44 260.523 492.971 260.949 492.288 261.184C491.627 261.44 490.624 261.568 489.28 261.568H485.024L484.576 259.104H488.736C489.589 259.104 490.208 259.04 490.592 258.912C490.976 258.784 491.243 258.549 491.392 258.208C491.541 257.845 491.616 257.269 491.616 256.48V237.312H469.92V234.944H498.08ZM473.216 242.08H486.144V254.752H473.216V242.08ZM475.552 252.448H483.744V244.416H475.552V252.448ZM504.832 234.816H528.16V258.144C528.16 259.531 527.861 260.48 527.264 260.992C526.688 261.504 525.653 261.76 524.16 261.76H520.896L520.512 259.296H523.424C524.085 259.296 524.565 259.253 524.864 259.168C525.184 259.061 525.397 258.869 525.504 258.592C525.611 258.315 525.664 257.888 525.664 257.312V252.864H517.632V261.568H515.168V252.864H507.136C506.987 254.72 506.677 256.363 506.208 257.792C505.76 259.2 505.056 260.715 504.096 262.336L501.824 261.152C502.72 259.68 503.371 258.411 503.776 257.344C504.181 256.256 504.459 255.029 504.608 253.664C504.757 252.277 504.832 250.325 504.832 247.808V234.816ZM515.168 242.784V237.216H507.296V242.784H515.168ZM517.632 242.784H525.664V237.216H517.632V242.784ZM515.168 250.464V245.184H507.296V248.672C507.296 249.483 507.285 250.08 507.264 250.464H515.168ZM517.632 245.184V250.464H525.664V245.184H517.632ZM557.12 233.056V236.704H562.08V239.072H557.12V242.272H554.944V239.072H549.728V242.272H547.488V239.072H543.456V236.704H547.488V233.056H549.728V236.704H554.944V233.056H557.12ZM539.904 233.088V238.56H542.816V240.896H539.904V246.4C540.544 246.187 541.344 245.888 542.304 245.504L542.592 247.872L539.904 248.864V258.24C539.904 259.093 539.787 259.744 539.552 260.192C539.339 260.661 538.955 260.992 538.4 261.184C537.845 261.376 537.045 261.472 536 261.472H534.496L534.048 259.04H535.872C536.427 259.04 536.821 259.008 537.056 258.944C537.312 258.859 537.472 258.709 537.536 258.496C537.621 258.261 537.664 257.888 537.664 257.376V249.696L534.08 251.008L533.632 248.576L537.664 247.2V240.896H534.464V238.56H537.664V233.088H539.904ZM546.624 262.016H544.384V243.52H560.384V262.016H558.176V260.096H546.624V262.016ZM551.232 250.688V245.824H546.624V250.688H551.232ZM553.44 250.688H558.176V245.824H553.44V250.688ZM546.624 252.928V257.856H551.232V252.928H546.624ZM553.44 252.928V257.856H558.176V252.928H553.44ZM573.248 252.704C575.232 250.912 576.896 249.141 578.24 247.392C579.605 245.621 580.768 243.669 581.728 241.536H574.624V239.2H582.272V233.024H584.704V239.2H593.408V241.536H584.704V244.352C585.92 245.163 587.424 246.24 589.216 247.584C591.029 248.928 592.597 250.123 593.92 251.168L592.576 253.28C591.659 252.533 589.269 250.635 585.408 247.584L584.704 247.04V257.504H582.272V245.184C581.333 246.976 580.267 248.64 579.072 250.176C577.899 251.691 576.512 253.227 574.912 254.784L573.248 252.704ZM589.92 238.496C589.515 237.984 588.949 237.365 588.224 236.64C587.499 235.893 586.859 235.264 586.304 234.752L587.776 233.344L591.488 237.024L589.92 238.496ZM571.68 240.608C570.784 239.477 569.344 237.781 567.36 235.52L569.056 233.856C571.339 236.395 572.8 238.08 573.44 238.912L571.68 240.608ZM594.176 258.88L593.664 261.312H580.384C578.123 261.312 576.235 260.992 574.72 260.352C573.205 259.733 571.936 258.752 570.912 257.408L566.88 261.76L565.696 259.168L569.536 255.2V246.176H566.016V243.84H572V255.072C572.853 256.373 573.984 257.333 575.392 257.952C576.821 258.571 578.603 258.88 580.736 258.88H594.176ZM610.848 241.92C612.768 239.275 614.368 236.203 615.648 232.704L617.76 233.376L616.8 235.904H625.92V238.112H620.384C621.173 239.328 621.76 240.288 622.144 240.992L620.288 242.048C619.52 240.747 618.859 239.648 618.304 238.752L617.92 238.112H615.776C614.88 239.925 613.909 241.557 612.864 243.008L610.848 241.92ZM603.264 238.112C602.133 240.032 600.885 241.792 599.52 243.392L597.888 241.504C598.848 240.544 599.861 239.189 600.928 237.44C602.016 235.691 602.859 234.133 603.456 232.768L605.696 233.344C605.44 233.984 605.045 234.837 604.512 235.904H612.48V238.112H607.04C607.851 239.179 608.523 240.16 609.056 241.056L607.136 242.176C606.347 240.875 605.44 239.52 604.416 238.112H603.264ZM606.496 243.008C605.984 244.181 605.419 245.323 604.8 246.432V261.984H602.432V250.048C601.323 251.477 600.117 252.768 598.816 253.92L597.728 251.776C600.352 249.237 602.592 246.016 604.448 242.112L606.496 243.008ZM626.048 246.336V248.736H621.376V258.112C621.376 259.072 621.248 259.808 620.992 260.32C620.757 260.853 620.331 261.227 619.712 261.44C619.115 261.675 618.251 261.792 617.12 261.792H613.12L612.64 259.36H616.48C617.227 259.36 617.771 259.307 618.112 259.2C618.453 259.093 618.677 258.912 618.784 258.656C618.912 258.379 618.976 257.952 618.976 257.376V248.736H606.752V246.336H618.976V242.944H621.376V246.336H626.048ZM613.024 256.608C611.979 255.264 610.496 253.547 608.576 251.456L610.368 249.856C612.352 252.032 613.845 253.728 614.848 254.944L613.024 256.608Z" fill="black"/>
<path d="M319.072 256.384C320.309 254.933 321.152 253.739 321.6 252.8C322.069 251.84 322.368 250.645 322.496 249.216H318.016V246.88H322.592V244.992V240.608H319.04V238.272H322.592V233.344H324.896V238.272H330.912V233.312H333.216V238.272H336.96V240.608H333.216V246.88H338.08V249.216H333.216V257.472H330.912V249.216H324.768C324.64 251.115 324.309 252.651 323.776 253.824C323.264 254.976 322.347 256.309 321.024 257.824L319.072 256.384ZM315.616 241.28C315.125 240.576 314.411 239.616 313.472 238.4C312.555 237.163 311.744 236.107 311.04 235.232L312.832 233.728C314.752 236.096 316.299 238.059 317.472 239.616L315.616 241.28ZM324.896 244.768C324.896 245.749 324.885 246.453 324.864 246.88H330.912V240.608H324.896V244.768ZM338.144 258.816L337.536 261.216H323.936C322.4 261.216 321.141 261.12 320.16 260.928C319.179 260.736 318.283 260.373 317.472 259.84C316.661 259.285 315.829 258.475 314.976 257.408L311.104 261.536L309.696 259.264L313.632 255.072V246.496H310.08V244.096H316.064V255.072C316.789 256.139 317.515 256.939 318.24 257.472C318.987 258.005 319.819 258.368 320.736 258.56C321.653 258.731 322.837 258.816 324.288 258.816H338.144ZM351.392 252.448C351.008 252.064 350.016 251.147 348.416 249.696V262.176H346.272V249.312C345.248 251.979 344.053 254.347 342.688 256.416L341.376 254.336C342.379 252.864 343.275 251.264 344.064 249.536C344.875 247.787 345.557 246.048 346.112 244.32H342.08V241.92H346.272V237.44L342.4 238.048L342.208 235.776C346.219 235.179 349.472 234.571 351.968 233.952L352.512 236.224C351.381 236.501 350.016 236.779 348.416 237.056V241.92H352.32V244.32H348.416V246.944L352.768 250.72L351.392 252.448ZM353.888 234.72H368.032V243.456H353.888V234.72ZM356.192 241.344H365.728V236.8H356.192V241.344ZM362.144 254.624V258.592H370.208V260.864H351.392V258.592H359.776V254.624H353.312V252.48H359.776V248.512H352.832V246.4H369.28V248.512H362.144V252.48H368.48V254.624H362.144ZM409.92 233.952H430.144V243.008H409.92V233.952ZM427.872 237.632V235.84H412.192V237.632H427.872ZM412.192 239.328V241.152H427.872V239.328H412.192ZM421.472 258.496C421.301 258.517 420.533 258.613 419.168 258.784V262.272H417.024V259.072C410.987 259.776 407.403 260.224 406.272 260.416L406.048 258.368L407.712 258.176L408.8 258.048V246.848H406.048V244.896H434.016V246.848H419.168V256.768L421.344 256.48L421.408 257.568L421.472 258.496ZM417.024 249.248V246.848H410.976V249.248H417.024ZM433.184 261.952C430.581 260.949 428.427 259.776 426.72 258.432C425.141 259.776 423.2 260.981 420.896 262.048L419.84 260C421.952 259.189 423.733 258.197 425.184 257.024C424.395 256.192 423.68 255.275 423.04 254.272C422.421 253.248 421.824 252.085 421.248 250.784V248.8H432.128V250.944C431.232 253.205 429.973 255.2 428.352 256.928C429.803 257.995 431.723 258.944 434.112 259.776L433.184 261.952ZM423.584 250.784C424.416 252.704 425.472 254.304 426.752 255.584C428.053 254.176 429.035 252.576 429.696 250.784H423.584ZM417.024 250.944H410.976V253.344H417.024V250.944ZM410.976 257.792L417.024 257.056V255.04H410.976V257.792ZM448.288 258.848C449.056 258.848 449.621 258.784 449.984 258.656C450.347 258.507 450.592 258.251 450.72 257.888C450.848 257.525 450.912 256.96 450.912 256.192V233.376H453.632V256.992C453.632 258.165 453.483 259.072 453.184 259.712C452.885 260.352 452.395 260.8 451.712 261.056C451.051 261.312 450.101 261.44 448.864 261.44H444.864L444.352 258.848H448.288ZM459.328 238.88C460.288 240.821 461.504 243.573 462.976 247.136C464.448 250.699 465.568 253.579 466.336 255.776L463.744 256.896C462.955 254.528 461.877 251.637 460.512 248.224C459.147 244.789 457.963 241.995 456.96 239.84L459.328 238.88ZM437.6 255.488C438.816 253.269 439.947 250.667 440.992 247.68C442.059 244.672 442.891 241.867 443.488 239.264L446.112 239.808C445.408 242.667 444.512 245.611 443.424 248.64C442.357 251.669 441.216 254.336 440 256.64L437.6 255.488Z" fill="#2C94DE"/>
</svg>
