<svg width="631" height="400" viewBox="0 0 631 400" fill="none" xmlns="http://www.w3.org/2000/svg">
<rect width="631" height="400" fill="white"/>
<rect x="162" y="296" width="196" height="30" fill="#FEF3C7" stroke="#FCD34D" stroke-width="2"/>
<path d="M239.384 318.196C238.255 318.196 237.378 317.72 236.752 316.768C236.127 315.807 235.814 314.444 235.814 312.68C235.814 310.916 236.127 309.558 236.752 308.606C237.378 307.645 238.255 307.164 239.384 307.164C240.523 307.164 241.4 307.645 242.016 308.606C242.642 309.558 242.954 310.916 242.954 312.68C242.954 314.444 242.642 315.807 242.016 316.768C241.4 317.72 240.523 318.196 239.384 318.196ZM239.384 317.076C240.122 317.076 240.691 316.698 241.092 315.942C241.503 315.177 241.708 314.089 241.708 312.68C241.708 311.271 241.503 310.188 241.092 309.432C240.691 308.667 240.122 308.284 239.384 308.284C238.647 308.284 238.073 308.667 237.662 309.432C237.261 310.188 237.06 311.271 237.06 312.68C237.06 314.089 237.261 315.177 237.662 315.942C238.073 316.698 238.647 317.076 239.384 317.076ZM247.991 314.248L250.595 318H249.181L247.277 315.102L245.345 318H243.945L246.633 314.136L244.127 310.58H245.527L247.375 313.352L249.139 310.58H250.511L247.991 314.248ZM253.062 316.88H257.906V318H251.438V316.992L254.63 313.31C255.283 312.563 255.75 311.943 256.03 311.448C256.31 310.953 256.45 310.491 256.45 310.062C256.45 309.53 256.277 309.101 255.932 308.774C255.586 308.447 255.134 308.284 254.574 308.284C254.107 308.284 253.687 308.424 253.314 308.704C252.95 308.984 252.646 309.385 252.404 309.908L251.368 309.404C251.648 308.685 252.063 308.135 252.614 307.752C253.174 307.36 253.836 307.164 254.602 307.164C255.208 307.164 255.745 307.281 256.212 307.514C256.678 307.747 257.042 308.079 257.304 308.508C257.565 308.937 257.696 309.437 257.696 310.006C257.696 310.547 257.542 311.121 257.234 311.728C256.926 312.335 256.422 313.039 255.722 313.842L253.062 316.88ZM262.873 318.196C261.743 318.196 260.866 317.72 260.241 316.768C259.615 315.807 259.303 314.444 259.303 312.68C259.303 310.916 259.615 309.558 260.241 308.606C260.866 307.645 261.743 307.164 262.873 307.164C264.011 307.164 264.889 307.645 265.505 308.606C266.13 309.558 266.443 310.916 266.443 312.68C266.443 314.444 266.13 315.807 265.505 316.768C264.889 317.72 264.011 318.196 262.873 318.196ZM262.873 317.076C263.61 317.076 264.179 316.698 264.581 315.942C264.991 315.177 265.197 314.089 265.197 312.68C265.197 311.271 264.991 310.188 264.581 309.432C264.179 308.667 263.61 308.284 262.873 308.284C262.135 308.284 261.561 308.667 261.151 309.432C260.749 310.188 260.549 311.271 260.549 312.68C260.549 314.089 260.749 315.177 261.151 315.942C261.561 316.698 262.135 317.076 262.873 317.076ZM271.746 318.196C270.616 318.196 269.739 317.72 269.114 316.768C268.488 315.807 268.176 314.444 268.176 312.68C268.176 310.916 268.488 309.558 269.114 308.606C269.739 307.645 270.616 307.164 271.746 307.164C272.884 307.164 273.762 307.645 274.378 308.606C275.003 309.558 275.316 310.916 275.316 312.68C275.316 314.444 275.003 315.807 274.378 316.768C273.762 317.72 272.884 318.196 271.746 318.196ZM271.746 317.076C272.483 317.076 273.052 316.698 273.454 315.942C273.864 315.177 274.07 314.089 274.07 312.68C274.07 311.271 273.864 310.188 273.454 309.432C273.052 308.667 272.483 308.284 271.746 308.284C271.008 308.284 270.434 308.667 270.024 309.432C269.622 310.188 269.422 311.271 269.422 312.68C269.422 314.089 269.622 315.177 270.024 315.942C270.434 316.698 271.008 317.076 271.746 317.076ZM280.619 318.196C279.489 318.196 278.612 317.72 277.987 316.768C277.361 315.807 277.049 314.444 277.049 312.68C277.049 310.916 277.361 309.558 277.987 308.606C278.612 307.645 279.489 307.164 280.619 307.164C281.757 307.164 282.635 307.645 283.251 308.606C283.876 309.558 284.189 310.916 284.189 312.68C284.189 314.444 283.876 315.807 283.251 316.768C282.635 317.72 281.757 318.196 280.619 318.196ZM280.619 317.076C281.356 317.076 281.925 316.698 282.327 315.942C282.737 315.177 282.943 314.089 282.943 312.68C282.943 311.271 282.737 310.188 282.327 309.432C281.925 308.667 281.356 308.284 280.619 308.284C279.881 308.284 279.307 308.667 278.897 309.432C278.495 310.188 278.295 311.271 278.295 312.68C278.295 314.089 278.495 315.177 278.897 315.942C279.307 316.698 279.881 317.076 280.619 317.076Z" fill="black"/>
<path d="M171.008 319.346V308.58H172.17V309.644H172.24C172.52 309.252 172.861 308.944 173.262 308.72C173.673 308.496 174.111 308.384 174.578 308.384C175.175 308.384 175.712 308.547 176.188 308.874C176.673 309.191 177.051 309.639 177.322 310.218C177.593 310.787 177.728 311.431 177.728 312.15C177.728 312.925 177.593 313.62 177.322 314.236C177.051 314.843 176.673 315.319 176.188 315.664C175.712 316.009 175.175 316.182 174.578 316.182C174.074 316.182 173.621 316.075 173.22 315.86C172.828 315.645 172.501 315.337 172.24 314.936H172.17V319.346H171.008ZM172.114 312.29C172.114 312.822 172.203 313.298 172.38 313.718C172.567 314.138 172.823 314.465 173.15 314.698C173.477 314.931 173.85 315.048 174.27 315.048C174.709 315.048 175.101 314.931 175.446 314.698C175.791 314.465 176.062 314.138 176.258 313.718C176.454 313.298 176.552 312.822 176.552 312.29C176.552 311.758 176.454 311.282 176.258 310.862C176.071 310.442 175.805 310.115 175.46 309.882C175.124 309.649 174.741 309.532 174.312 309.532C173.892 309.532 173.514 309.649 173.178 309.882C172.842 310.115 172.581 310.442 172.394 310.862C172.207 311.282 172.114 311.758 172.114 312.29Z" fill="black"/>
<rect x="162" y="136" width="196" height="30" fill="#D9D9D9" stroke="#535353" stroke-width="2"/>
<path d="M239.384 158.196C238.255 158.196 237.378 157.72 236.752 156.768C236.127 155.807 235.814 154.444 235.814 152.68C235.814 150.916 236.127 149.558 236.752 148.606C237.378 147.645 238.255 147.164 239.384 147.164C240.523 147.164 241.4 147.645 242.016 148.606C242.642 149.558 242.954 150.916 242.954 152.68C242.954 154.444 242.642 155.807 242.016 156.768C241.4 157.72 240.523 158.196 239.384 158.196ZM239.384 157.076C240.122 157.076 240.691 156.698 241.092 155.942C241.503 155.177 241.708 154.089 241.708 152.68C241.708 151.271 241.503 150.188 241.092 149.432C240.691 148.667 240.122 148.284 239.384 148.284C238.647 148.284 238.073 148.667 237.662 149.432C237.261 150.188 237.06 151.271 237.06 152.68C237.06 154.089 237.261 155.177 237.662 155.942C238.073 156.698 238.647 157.076 239.384 157.076ZM247.991 154.248L250.595 158H249.181L247.277 155.102L245.345 158H243.945L246.633 154.136L244.127 150.58H245.527L247.375 153.352L249.139 150.58H250.511L247.991 154.248ZM253.062 156.88H257.906V158H251.438V156.992L254.63 153.31C255.283 152.563 255.75 151.943 256.03 151.448C256.31 150.953 256.45 150.491 256.45 150.062C256.45 149.53 256.277 149.101 255.932 148.774C255.586 148.447 255.134 148.284 254.574 148.284C254.107 148.284 253.687 148.424 253.314 148.704C252.95 148.984 252.646 149.385 252.404 149.908L251.368 149.404C251.648 148.685 252.063 148.135 252.614 147.752C253.174 147.36 253.836 147.164 254.602 147.164C255.208 147.164 255.745 147.281 256.212 147.514C256.678 147.747 257.042 148.079 257.304 148.508C257.565 148.937 257.696 149.437 257.696 150.006C257.696 150.547 257.542 151.121 257.234 151.728C256.926 152.335 256.422 153.039 255.722 153.842L253.062 156.88ZM262.873 158.196C261.743 158.196 260.866 157.72 260.241 156.768C259.615 155.807 259.303 154.444 259.303 152.68C259.303 150.916 259.615 149.558 260.241 148.606C260.866 147.645 261.743 147.164 262.873 147.164C264.011 147.164 264.889 147.645 265.505 148.606C266.13 149.558 266.443 150.916 266.443 152.68C266.443 154.444 266.13 155.807 265.505 156.768C264.889 157.72 264.011 158.196 262.873 158.196ZM262.873 157.076C263.61 157.076 264.179 156.698 264.581 155.942C264.991 155.177 265.197 154.089 265.197 152.68C265.197 151.271 264.991 150.188 264.581 149.432C264.179 148.667 263.61 148.284 262.873 148.284C262.135 148.284 261.561 148.667 261.151 149.432C260.749 150.188 260.549 151.271 260.549 152.68C260.549 154.089 260.749 155.177 261.151 155.942C261.561 156.698 262.135 157.076 262.873 157.076ZM271.746 158.196C270.616 158.196 269.739 157.72 269.114 156.768C268.488 155.807 268.176 154.444 268.176 152.68C268.176 150.916 268.488 149.558 269.114 148.606C269.739 147.645 270.616 147.164 271.746 147.164C272.884 147.164 273.762 147.645 274.378 148.606C275.003 149.558 275.316 150.916 275.316 152.68C275.316 154.444 275.003 155.807 274.378 156.768C273.762 157.72 272.884 158.196 271.746 158.196ZM271.746 157.076C272.483 157.076 273.052 156.698 273.454 155.942C273.864 155.177 274.07 154.089 274.07 152.68C274.07 151.271 273.864 150.188 273.454 149.432C273.052 148.667 272.483 148.284 271.746 148.284C271.008 148.284 270.434 148.667 270.024 149.432C269.622 150.188 269.422 151.271 269.422 152.68C269.422 154.089 269.622 155.177 270.024 155.942C270.434 156.698 271.008 157.076 271.746 157.076ZM280.619 158.196C279.489 158.196 278.612 157.72 277.987 156.768C277.361 155.807 277.049 154.444 277.049 152.68C277.049 150.916 277.361 149.558 277.987 148.606C278.612 147.645 279.489 147.164 280.619 147.164C281.757 147.164 282.635 147.645 283.251 148.606C283.876 149.558 284.189 150.916 284.189 152.68C284.189 154.444 283.876 155.807 283.251 156.768C282.635 157.72 281.757 158.196 280.619 158.196ZM280.619 157.076C281.356 157.076 281.925 156.698 282.327 155.942C282.737 155.177 282.943 154.089 282.943 152.68C282.943 151.271 282.737 150.188 282.327 149.432C281.925 148.667 281.356 148.284 280.619 148.284C279.881 148.284 279.307 148.667 278.897 149.432C278.495 150.188 278.295 151.271 278.295 152.68C278.295 154.089 278.495 155.177 278.897 155.942C279.307 156.698 279.881 157.076 280.619 157.076Z" fill="black"/>
<path d="M179.142 157H177.854L176.58 153.402H172.744L171.47 157H170.182L174.032 146.36H175.292L179.142 157ZM174.62 148.124L173.15 152.254H176.174L174.704 148.124H174.62ZM186.772 150.602H180.444V149.524H186.772V150.602ZM186.772 153.71H180.444V152.632H186.772V153.71Z" fill="black"/>
<rect x="162" y="72" width="196" height="30" fill="#D9D9D9" stroke="#535353" stroke-width="2"/>
<path d="M240.417 94.196C239.287 94.196 238.41 93.72 237.785 92.768C237.159 91.8067 236.847 90.444 236.847 88.68C236.847 86.916 237.159 85.558 237.785 84.606C238.41 83.6447 239.287 83.164 240.417 83.164C241.555 83.164 242.433 83.6447 243.049 84.606C243.674 85.558 243.987 86.916 243.987 88.68C243.987 90.444 243.674 91.8067 243.049 92.768C242.433 93.72 241.555 94.196 240.417 94.196ZM240.417 93.076C241.154 93.076 241.723 92.698 242.125 91.942C242.535 91.1767 242.741 90.0893 242.741 88.68C242.741 87.2707 242.535 86.188 242.125 85.432C241.723 84.6667 241.154 84.284 240.417 84.284C239.679 84.284 239.105 84.6667 238.695 85.432C238.293 86.188 238.093 87.2707 238.093 88.68C238.093 90.0893 238.293 91.1767 238.695 91.942C239.105 92.698 239.679 93.076 240.417 93.076ZM249.024 90.248L251.628 94H250.214L248.31 91.102L246.378 94H244.978L247.666 90.136L245.16 86.58H246.56L248.408 89.352L250.172 86.58H251.544L249.024 90.248ZM255.746 94H254.528V84.774L252.456 85.866V84.592L254.836 83.36H255.746V94ZM261.84 94.196C260.711 94.196 259.834 93.72 259.208 92.768C258.583 91.8067 258.27 90.444 258.27 88.68C258.27 86.916 258.583 85.558 259.208 84.606C259.834 83.6447 260.711 83.164 261.84 83.164C262.979 83.164 263.856 83.6447 264.472 84.606C265.098 85.558 265.41 86.916 265.41 88.68C265.41 90.444 265.098 91.8067 264.472 92.768C263.856 93.72 262.979 94.196 261.84 94.196ZM261.84 93.076C262.578 93.076 263.147 92.698 263.548 91.942C263.959 91.1767 264.164 90.0893 264.164 88.68C264.164 87.2707 263.959 86.188 263.548 85.432C263.147 84.6667 262.578 84.284 261.84 84.284C261.103 84.284 260.529 84.6667 260.118 85.432C259.717 86.188 259.516 87.2707 259.516 88.68C259.516 90.0893 259.717 91.1767 260.118 91.942C260.529 92.698 261.103 93.076 261.84 93.076ZM270.713 94.196C269.584 94.196 268.707 93.72 268.081 92.768C267.456 91.8067 267.143 90.444 267.143 88.68C267.143 86.916 267.456 85.558 268.081 84.606C268.707 83.6447 269.584 83.164 270.713 83.164C271.852 83.164 272.729 83.6447 273.345 84.606C273.971 85.558 274.283 86.916 274.283 88.68C274.283 90.444 273.971 91.8067 273.345 92.768C272.729 93.72 271.852 94.196 270.713 94.196ZM270.713 93.076C271.451 93.076 272.02 92.698 272.421 91.942C272.832 91.1767 273.037 90.0893 273.037 88.68C273.037 87.2707 272.832 86.188 272.421 85.432C272.02 84.6667 271.451 84.284 270.713 84.284C269.976 84.284 269.402 84.6667 268.991 85.432C268.59 86.188 268.389 87.2707 268.389 88.68C268.389 90.0893 268.59 91.1767 268.991 91.942C269.402 92.698 269.976 93.076 270.713 93.076ZM279.586 94.196C278.457 94.196 277.58 93.72 276.954 92.768C276.329 91.8067 276.016 90.444 276.016 88.68C276.016 86.916 276.329 85.558 276.954 84.606C277.58 83.6447 278.457 83.164 279.586 83.164C280.725 83.164 281.602 83.6447 282.218 84.606C282.844 85.558 283.156 86.916 283.156 88.68C283.156 90.444 282.844 91.8067 282.218 92.768C281.602 93.72 280.725 94.196 279.586 94.196ZM279.586 93.076C280.324 93.076 280.893 92.698 281.294 91.942C281.705 91.1767 281.91 90.0893 281.91 88.68C281.91 87.2707 281.705 86.188 281.294 85.432C280.893 84.6667 280.324 84.284 279.586 84.284C278.849 84.284 278.275 84.6667 277.864 85.432C277.463 86.188 277.262 87.2707 277.262 88.68C277.262 90.0893 277.463 91.1767 277.864 91.942C278.275 92.698 278.849 93.076 279.586 93.076Z" fill="black"/>
<path d="M179.772 93H178.148L177.126 91.838C176.127 92.7433 175.017 93.196 173.794 93.196C173.187 93.196 172.646 93.07 172.17 92.818C171.694 92.566 171.321 92.216 171.05 91.768C170.779 91.32 170.644 90.8253 170.644 90.284C170.644 89.472 170.849 88.8327 171.26 88.366C171.68 87.8993 172.259 87.498 172.996 87.162C172.632 86.7327 172.366 86.3407 172.198 85.986C172.03 85.6313 171.946 85.244 171.946 84.824C171.946 84.3107 172.063 83.8533 172.296 83.452C172.539 83.0507 172.875 82.738 173.304 82.514C173.733 82.2807 174.223 82.164 174.774 82.164C175.269 82.164 175.707 82.2713 176.09 82.486C176.473 82.6913 176.771 82.976 176.986 83.34C177.21 83.704 177.322 84.1193 177.322 84.586C177.322 85.3327 177.107 85.9207 176.678 86.35C176.249 86.7793 175.651 87.1667 174.886 87.512L177.154 90.06C177.583 89.4347 177.91 88.7253 178.134 87.932L179.212 88.31C178.932 89.2993 178.507 90.1767 177.938 90.942L179.772 93ZM173.164 84.838C173.164 85.1553 173.234 85.44 173.374 85.692C173.523 85.944 173.775 86.2707 174.13 86.672C174.783 86.392 175.273 86.1073 175.6 85.818C175.936 85.5287 176.104 85.1413 176.104 84.656C176.104 84.2733 175.969 83.9467 175.698 83.676C175.437 83.396 175.115 83.256 174.732 83.256C174.284 83.256 173.911 83.41 173.612 83.718C173.313 84.0167 173.164 84.39 173.164 84.838ZM173.878 92.104C174.765 92.104 175.595 91.7307 176.37 90.984L173.752 88.016C173.145 88.296 172.679 88.5993 172.352 88.926C172.025 89.2433 171.862 89.6633 171.862 90.186C171.862 90.5313 171.946 90.8533 172.114 91.152C172.291 91.4413 172.534 91.6747 172.842 91.852C173.15 92.02 173.495 92.104 173.878 92.104ZM189.109 93H187.821L186.547 89.402H182.711L181.437 93H180.149L183.999 82.36H185.259L189.109 93ZM184.587 84.124L183.117 88.254H186.141L184.671 84.124H184.587ZM196.739 86.602H190.411V85.524H196.739V86.602ZM196.739 89.71H190.411V88.632H196.739V89.71Z" fill="black"/>
<path d="M75.438 227.196C74.3087 227.196 73.4313 226.72 72.806 225.768C72.1807 224.807 71.868 223.444 71.868 221.68C71.868 219.916 72.1807 218.558 72.806 217.606C73.4313 216.645 74.3087 216.164 75.438 216.164C76.5767 216.164 77.454 216.645 78.07 217.606C78.6953 218.558 79.008 219.916 79.008 221.68C79.008 223.444 78.6953 224.807 78.07 225.768C77.454 226.72 76.5767 227.196 75.438 227.196ZM75.438 226.076C76.1753 226.076 76.7447 225.698 77.146 224.942C77.5567 224.177 77.762 223.089 77.762 221.68C77.762 220.271 77.5567 219.188 77.146 218.432C76.7447 217.667 76.1753 217.284 75.438 217.284C74.7007 217.284 74.1267 217.667 73.716 218.432C73.3147 219.188 73.114 220.271 73.114 221.68C73.114 223.089 73.3147 224.177 73.716 224.942C74.1267 225.698 74.7007 226.076 75.438 226.076ZM84.045 223.248L86.649 227H85.235L83.331 224.102L81.399 227H79.999L82.687 223.136L80.181 219.58H81.581L83.429 222.352L85.193 219.58H86.565L84.045 223.248ZM89.1153 225.88H93.9593V227H87.4913V225.992L90.6833 222.31C91.3367 221.563 91.8033 220.943 92.0833 220.448C92.3633 219.953 92.5033 219.491 92.5033 219.062C92.5033 218.53 92.3307 218.101 91.9853 217.774C91.64 217.447 91.1873 217.284 90.6273 217.284C90.1607 217.284 89.7407 217.424 89.3673 217.704C89.0033 217.984 88.7 218.385 88.4573 218.908L87.4213 218.404C87.7013 217.685 88.1167 217.135 88.6673 216.752C89.2273 216.36 89.89 216.164 90.6553 216.164C91.262 216.164 91.7987 216.281 92.2653 216.514C92.732 216.747 93.096 217.079 93.3573 217.508C93.6187 217.937 93.7493 218.437 93.7493 219.006C93.7493 219.547 93.5953 220.121 93.2873 220.728C92.9793 221.335 92.4753 222.039 91.7753 222.842L89.1153 225.88ZM98.9263 227.196C97.7969 227.196 96.9196 226.72 96.2943 225.768C95.6689 224.807 95.3563 223.444 95.3563 221.68C95.3563 219.916 95.6689 218.558 96.2943 217.606C96.9196 216.645 97.7969 216.164 98.9263 216.164C100.065 216.164 100.942 216.645 101.558 217.606C102.184 218.558 102.496 219.916 102.496 221.68C102.496 223.444 102.184 224.807 101.558 225.768C100.942 226.72 100.065 227.196 98.9263 227.196ZM98.9263 226.076C99.6636 226.076 100.233 225.698 100.634 224.942C101.045 224.177 101.25 223.089 101.25 221.68C101.25 220.271 101.045 219.188 100.634 218.432C100.233 217.667 99.6636 217.284 98.9263 217.284C98.1889 217.284 97.6149 217.667 97.2043 218.432C96.8029 219.188 96.6023 220.271 96.6023 221.68C96.6023 223.089 96.8029 224.177 97.2043 224.942C97.6149 225.698 98.1889 226.076 98.9263 226.076ZM107.799 227.196C106.67 227.196 105.793 226.72 105.167 225.768C104.542 224.807 104.229 223.444 104.229 221.68C104.229 219.916 104.542 218.558 105.167 217.606C105.793 216.645 106.67 216.164 107.799 216.164C108.938 216.164 109.815 216.645 110.431 217.606C111.057 218.558 111.369 219.916 111.369 221.68C111.369 223.444 111.057 224.807 110.431 225.768C109.815 226.72 108.938 227.196 107.799 227.196ZM107.799 226.076C108.537 226.076 109.106 225.698 109.507 224.942C109.918 224.177 110.123 223.089 110.123 221.68C110.123 220.271 109.918 219.188 109.507 218.432C109.106 217.667 108.537 217.284 107.799 217.284C107.062 217.284 106.488 217.667 106.077 218.432C105.676 219.188 105.475 220.271 105.475 221.68C105.475 223.089 105.676 224.177 106.077 224.942C106.488 225.698 107.062 226.076 107.799 226.076ZM116.672 227.196C115.543 227.196 114.666 226.72 114.04 225.768C113.415 224.807 113.102 223.444 113.102 221.68C113.102 219.916 113.415 218.558 114.04 217.606C114.666 216.645 115.543 216.164 116.672 216.164C117.811 216.164 118.688 216.645 119.304 217.606C119.93 218.558 120.242 219.916 120.242 221.68C120.242 223.444 119.93 224.807 119.304 225.768C118.688 226.72 117.811 227.196 116.672 227.196ZM116.672 226.076C117.41 226.076 117.979 225.698 118.38 224.942C118.791 224.177 118.996 223.089 118.996 221.68C118.996 220.271 118.791 219.188 118.38 218.432C117.979 217.667 117.41 217.284 116.672 217.284C115.935 217.284 115.361 217.667 114.95 218.432C114.549 219.188 114.348 220.271 114.348 221.68C114.348 223.089 114.549 224.177 114.95 224.942C115.361 225.698 115.935 226.076 116.672 226.076Z" fill="#535353"/>
<path d="M75.438 316.196C74.3087 316.196 73.4313 315.72 72.806 314.768C72.1807 313.807 71.868 312.444 71.868 310.68C71.868 308.916 72.1807 307.558 72.806 306.606C73.4313 305.645 74.3087 305.164 75.438 305.164C76.5767 305.164 77.454 305.645 78.07 306.606C78.6953 307.558 79.008 308.916 79.008 310.68C79.008 312.444 78.6953 313.807 78.07 314.768C77.454 315.72 76.5767 316.196 75.438 316.196ZM75.438 315.076C76.1753 315.076 76.7447 314.698 77.146 313.942C77.5567 313.177 77.762 312.089 77.762 310.68C77.762 309.271 77.5567 308.188 77.146 307.432C76.7447 306.667 76.1753 306.284 75.438 306.284C74.7007 306.284 74.1267 306.667 73.716 307.432C73.3147 308.188 73.114 309.271 73.114 310.68C73.114 312.089 73.3147 313.177 73.716 313.942C74.1267 314.698 74.7007 315.076 75.438 315.076ZM84.045 312.248L86.649 316H85.235L83.331 313.102L81.399 316H79.999L82.687 312.136L80.181 308.58H81.581L83.429 311.352L85.193 308.58H86.565L84.045 312.248ZM90.7533 309.728C90.856 309.709 91.0147 309.7 91.2293 309.7C91.752 309.7 92.2467 309.821 92.7133 310.064C93.1893 310.297 93.5767 310.652 93.8753 311.128C94.174 311.604 94.3233 312.187 94.3233 312.878C94.3233 313.55 94.1787 314.138 93.8893 314.642C93.6093 315.137 93.2127 315.519 92.6993 315.79C92.186 316.061 91.5887 316.196 90.9073 316.196C90.1513 316.196 89.4653 315.991 88.8493 315.58C88.2333 315.169 87.79 314.595 87.5193 313.858L88.6253 313.466C89.064 314.539 89.8387 315.076 90.9493 315.076C91.5933 315.076 92.1067 314.88 92.4893 314.488C92.8813 314.087 93.0773 313.55 93.0773 312.878C93.0773 312.206 92.8767 311.674 92.4753 311.282C92.0833 310.881 91.5467 310.68 90.8653 310.68C90.464 310.68 90.0767 310.787 89.7033 311.002L89.0313 310.078L92.1393 306.48H87.7853V305.36H93.7353V306.382L90.7253 309.672L90.7533 309.728ZM99.5005 316.196C98.3712 316.196 97.4938 315.72 96.8685 314.768C96.2432 313.807 95.9305 312.444 95.9305 310.68C95.9305 308.916 96.2432 307.558 96.8685 306.606C97.4938 305.645 98.3712 305.164 99.5005 305.164C100.639 305.164 101.517 305.645 102.132 306.606C102.758 307.558 103.071 308.916 103.071 310.68C103.071 312.444 102.758 313.807 102.132 314.768C101.517 315.72 100.639 316.196 99.5005 316.196ZM99.5005 315.076C100.238 315.076 100.807 314.698 101.209 313.942C101.619 313.177 101.825 312.089 101.825 310.68C101.825 309.271 101.619 308.188 101.209 307.432C100.807 306.667 100.238 306.284 99.5005 306.284C98.7632 306.284 98.1892 306.667 97.7785 307.432C97.3772 308.188 97.1765 309.271 97.1765 310.68C97.1765 312.089 97.3772 313.177 97.7785 313.942C98.1892 314.698 98.7632 315.076 99.5005 315.076ZM108.374 316.196C107.244 316.196 106.367 315.72 105.742 314.768C105.116 313.807 104.804 312.444 104.804 310.68C104.804 308.916 105.116 307.558 105.742 306.606C106.367 305.645 107.244 305.164 108.374 305.164C109.512 305.164 110.39 305.645 111.006 306.606C111.631 307.558 111.944 308.916 111.944 310.68C111.944 312.444 111.631 313.807 111.006 314.768C110.39 315.72 109.512 316.196 108.374 316.196ZM108.374 315.076C109.111 315.076 109.68 314.698 110.082 313.942C110.492 313.177 110.698 312.089 110.698 310.68C110.698 309.271 110.492 308.188 110.082 307.432C109.68 306.667 109.111 306.284 108.374 306.284C107.636 306.284 107.062 306.667 106.652 307.432C106.25 308.188 106.05 309.271 106.05 310.68C106.05 312.089 106.25 313.177 106.652 313.942C107.062 314.698 107.636 315.076 108.374 315.076ZM117.247 316.196C116.117 316.196 115.24 315.72 114.615 314.768C113.989 313.807 113.677 312.444 113.677 310.68C113.677 308.916 113.989 307.558 114.615 306.606C115.24 305.645 116.117 305.164 117.247 305.164C118.385 305.164 119.263 305.645 119.879 306.606C120.504 307.558 120.817 308.916 120.817 310.68C120.817 312.444 120.504 313.807 119.879 314.768C119.263 315.72 118.385 316.196 117.247 316.196ZM117.247 315.076C117.984 315.076 118.553 314.698 118.955 313.942C119.365 313.177 119.571 312.089 119.571 310.68C119.571 309.271 119.365 308.188 118.955 307.432C118.553 306.667 117.984 306.284 117.247 306.284C116.509 306.284 115.935 306.667 115.525 307.432C115.123 308.188 114.923 309.271 114.923 310.68C114.923 312.089 115.123 313.177 115.525 313.942C115.935 314.698 116.509 315.076 117.247 315.076Z" fill="#535353"/>
<path d="M75.438 160.196C74.3087 160.196 73.4313 159.72 72.806 158.768C72.1807 157.807 71.868 156.444 71.868 154.68C71.868 152.916 72.1807 151.558 72.806 150.606C73.4313 149.645 74.3087 149.164 75.438 149.164C76.5767 149.164 77.454 149.645 78.07 150.606C78.6953 151.558 79.008 152.916 79.008 154.68C79.008 156.444 78.6953 157.807 78.07 158.768C77.454 159.72 76.5767 160.196 75.438 160.196ZM75.438 159.076C76.1753 159.076 76.7447 158.698 77.146 157.942C77.5567 157.177 77.762 156.089 77.762 154.68C77.762 153.271 77.5567 152.188 77.146 151.432C76.7447 150.667 76.1753 150.284 75.438 150.284C74.7007 150.284 74.1267 150.667 73.716 151.432C73.3147 152.188 73.114 153.271 73.114 154.68C73.114 156.089 73.3147 157.177 73.716 157.942C74.1267 158.698 74.7007 159.076 75.438 159.076ZM84.045 156.248L86.649 160H85.235L83.331 157.102L81.399 160H79.999L82.687 156.136L80.181 152.58H81.581L83.429 155.352L85.193 152.58H86.565L84.045 156.248ZM90.7673 160H89.5493V150.774L87.4773 151.866V150.592L89.8573 149.36H90.7673V160ZM96.8618 160.196C95.7325 160.196 94.8552 159.72 94.2298 158.768C93.6045 157.807 93.2918 156.444 93.2918 154.68C93.2918 152.916 93.6045 151.558 94.2298 150.606C94.8552 149.645 95.7325 149.164 96.8618 149.164C98.0005 149.164 98.8778 149.645 99.4938 150.606C100.119 151.558 100.432 152.916 100.432 154.68C100.432 156.444 100.119 157.807 99.4938 158.768C98.8778 159.72 98.0005 160.196 96.8618 160.196ZM96.8618 159.076C97.5992 159.076 98.1685 158.698 98.5698 157.942C98.9805 157.177 99.1858 156.089 99.1858 154.68C99.1858 153.271 98.9805 152.188 98.5698 151.432C98.1685 150.667 97.5992 150.284 96.8618 150.284C96.1245 150.284 95.5505 150.667 95.1398 151.432C94.7385 152.188 94.5378 153.271 94.5378 154.68C94.5378 156.089 94.7385 157.177 95.1398 157.942C95.5505 158.698 96.1245 159.076 96.8618 159.076ZM105.735 160.196C104.606 160.196 103.728 159.72 103.103 158.768C102.478 157.807 102.165 156.444 102.165 154.68C102.165 152.916 102.478 151.558 103.103 150.606C103.728 149.645 104.606 149.164 105.735 149.164C106.874 149.164 107.751 149.645 108.367 150.606C108.992 151.558 109.305 152.916 109.305 154.68C109.305 156.444 108.992 157.807 108.367 158.768C107.751 159.72 106.874 160.196 105.735 160.196ZM105.735 159.076C106.472 159.076 107.042 158.698 107.443 157.942C107.854 157.177 108.059 156.089 108.059 154.68C108.059 153.271 107.854 152.188 107.443 151.432C107.042 150.667 106.472 150.284 105.735 150.284C104.998 150.284 104.424 150.667 104.013 151.432C103.612 152.188 103.411 153.271 103.411 154.68C103.411 156.089 103.612 157.177 104.013 157.942C104.424 158.698 104.998 159.076 105.735 159.076ZM114.608 160.196C113.479 160.196 112.601 159.72 111.976 158.768C111.351 157.807 111.038 156.444 111.038 154.68C111.038 152.916 111.351 151.558 111.976 150.606C112.601 149.645 113.479 149.164 114.608 149.164C115.747 149.164 116.624 149.645 117.24 150.606C117.865 151.558 118.178 152.916 118.178 154.68C118.178 156.444 117.865 157.807 117.24 158.768C116.624 159.72 115.747 160.196 114.608 160.196ZM114.608 159.076C115.345 159.076 115.915 158.698 116.316 157.942C116.727 157.177 116.932 156.089 116.932 154.68C116.932 153.271 116.727 152.188 116.316 151.432C115.915 150.667 115.345 150.284 114.608 150.284C113.871 150.284 113.297 150.667 112.886 151.432C112.485 152.188 112.284 153.271 112.284 154.68C112.284 156.089 112.485 157.177 112.886 157.942C113.297 158.698 113.871 159.076 114.608 159.076Z" fill="#535353"/>
<path d="M75.438 93.196C74.3087 93.196 73.4313 92.72 72.806 91.768C72.1807 90.8067 71.868 89.444 71.868 87.68C71.868 85.916 72.1807 84.558 72.806 83.606C73.4313 82.6447 74.3087 82.164 75.438 82.164C76.5767 82.164 77.454 82.6447 78.07 83.606C78.6953 84.558 79.008 85.916 79.008 87.68C79.008 89.444 78.6953 90.8067 78.07 91.768C77.454 92.72 76.5767 93.196 75.438 93.196ZM75.438 92.076C76.1753 92.076 76.7447 91.698 77.146 90.942C77.5567 90.1767 77.762 89.0893 77.762 87.68C77.762 86.2707 77.5567 85.188 77.146 84.432C76.7447 83.6667 76.1753 83.284 75.438 83.284C74.7007 83.284 74.1267 83.6667 73.716 84.432C73.3147 85.188 73.114 86.2707 73.114 87.68C73.114 89.0893 73.3147 90.1767 73.716 90.942C74.1267 91.698 74.7007 92.076 75.438 92.076ZM84.045 89.248L86.649 93H85.235L83.331 90.102L81.399 93H79.999L82.687 89.136L80.181 85.58H81.581L83.429 88.352L85.193 85.58H86.565L84.045 89.248ZM88.6253 90.466C88.8213 90.97 89.1107 91.3667 89.4933 91.656C89.8853 91.936 90.3753 92.076 90.9633 92.076C91.626 92.076 92.1487 91.8753 92.5313 91.474C92.9233 91.0633 93.1193 90.5127 93.1193 89.822C93.1193 89.1313 92.9187 88.59 92.5173 88.198C92.116 87.806 91.5793 87.61 90.9073 87.61C90.142 87.61 89.498 87.9273 88.9753 88.562L87.9533 88.282L88.3733 82.36H93.7633V83.48H89.4793L89.1993 87.092L89.2413 87.106C89.4747 86.8913 89.7547 86.7327 90.0813 86.63C90.4173 86.5273 90.772 86.476 91.1453 86.476C91.7707 86.476 92.326 86.6113 92.8113 86.882C93.306 87.1527 93.6887 87.54 93.9593 88.044C94.23 88.5387 94.3653 89.1127 94.3653 89.766C94.3653 90.4473 94.2207 91.0493 93.9313 91.572C93.6513 92.0947 93.2547 92.496 92.7413 92.776C92.228 93.056 91.64 93.196 90.9773 93.196C90.1187 93.196 89.3907 92.986 88.7933 92.566C88.196 92.146 87.7713 91.5813 87.5193 90.872L88.6253 90.466ZM99.6646 93.196C98.5352 93.196 97.6579 92.72 97.0326 91.768C96.4072 90.8067 96.0946 89.444 96.0946 87.68C96.0946 85.916 96.4072 84.558 97.0326 83.606C97.6579 82.6447 98.5352 82.164 99.6646 82.164C100.803 82.164 101.681 82.6447 102.297 83.606C102.922 84.558 103.235 85.916 103.235 87.68C103.235 89.444 102.922 90.8067 102.297 91.768C101.681 92.72 100.803 93.196 99.6646 93.196ZM99.6646 92.076C100.402 92.076 100.971 91.698 101.373 90.942C101.783 90.1767 101.989 89.0893 101.989 87.68C101.989 86.2707 101.783 85.188 101.373 84.432C100.971 83.6667 100.402 83.284 99.6646 83.284C98.9272 83.284 98.3532 83.6667 97.9426 84.432C97.5412 85.188 97.3406 86.2707 97.3406 87.68C97.3406 89.0893 97.5412 90.1767 97.9426 90.942C98.3532 91.698 98.9272 92.076 99.6646 92.076ZM108.538 93.196C107.408 93.196 106.531 92.72 105.906 91.768C105.28 90.8067 104.968 89.444 104.968 87.68C104.968 85.916 105.28 84.558 105.906 83.606C106.531 82.6447 107.408 82.164 108.538 82.164C109.676 82.164 110.554 82.6447 111.17 83.606C111.795 84.558 112.108 85.916 112.108 87.68C112.108 89.444 111.795 90.8067 111.17 91.768C110.554 92.72 109.676 93.196 108.538 93.196ZM108.538 92.076C109.275 92.076 109.844 91.698 110.246 90.942C110.656 90.1767 110.862 89.0893 110.862 87.68C110.862 86.2707 110.656 85.188 110.246 84.432C109.844 83.6667 109.275 83.284 108.538 83.284C107.8 83.284 107.226 83.6667 106.816 84.432C106.414 85.188 106.214 86.2707 106.214 87.68C106.214 89.0893 106.414 90.1767 106.816 90.942C107.226 91.698 107.8 92.076 108.538 92.076Z" fill="#535353"/>
<rect x="162" y="208" width="98" height="28" fill="#CFFAFE" stroke="#0891B2" stroke-width="2"/>
<path d="M202.613 227.196C201.483 227.196 200.606 226.72 199.981 225.768C199.355 224.807 199.043 223.444 199.043 221.68C199.043 219.916 199.355 218.558 199.981 217.606C200.606 216.645 201.483 216.164 202.613 216.164C203.751 216.164 204.629 216.645 205.245 217.606C205.87 218.558 206.183 219.916 206.183 221.68C206.183 223.444 205.87 224.807 205.245 225.768C204.629 226.72 203.751 227.196 202.613 227.196ZM202.613 226.076C203.35 226.076 203.919 225.698 204.321 224.942C204.731 224.177 204.937 223.089 204.937 221.68C204.937 220.271 204.731 219.188 204.321 218.432C203.919 217.667 203.35 217.284 202.613 217.284C201.875 217.284 201.301 217.667 200.891 218.432C200.489 219.188 200.289 220.271 200.289 221.68C200.289 223.089 200.489 224.177 200.891 224.942C201.301 225.698 201.875 226.076 202.613 226.076ZM211.22 223.248L213.824 227H212.41L210.506 224.102L208.574 227H207.174L209.862 223.136L207.356 219.58H208.756L210.604 222.352L212.368 219.58H213.74L211.22 223.248ZM218.39 227.196C217.261 227.196 216.383 226.72 215.758 225.768C215.133 224.807 214.82 223.444 214.82 221.68C214.82 219.916 215.133 218.558 215.758 217.606C216.383 216.645 217.261 216.164 218.39 216.164C219.529 216.164 220.406 216.645 221.022 217.606C221.647 218.558 221.96 219.916 221.96 221.68C221.96 223.444 221.647 224.807 221.022 225.768C220.406 226.72 219.529 227.196 218.39 227.196ZM218.39 226.076C219.127 226.076 219.697 225.698 220.098 224.942C220.509 224.177 220.714 223.089 220.714 221.68C220.714 220.271 220.509 219.188 220.098 218.432C219.697 217.667 219.127 217.284 218.39 217.284C217.653 217.284 217.079 217.667 216.668 218.432C216.267 219.188 216.066 220.271 216.066 221.68C216.066 223.089 216.267 224.177 216.668 224.942C217.079 225.698 217.653 226.076 218.39 226.076Z" fill="black"/>
<rect x="162" y="236" width="98" height="28" fill="#CFFAFE" stroke="#0891B2" stroke-width="2"/>
<path d="M202.584 255.196C201.455 255.196 200.578 254.72 199.952 253.768C199.327 252.807 199.014 251.444 199.014 249.68C199.014 247.916 199.327 246.558 199.952 245.606C200.578 244.645 201.455 244.164 202.584 244.164C203.723 244.164 204.6 244.645 205.216 245.606C205.842 246.558 206.154 247.916 206.154 249.68C206.154 251.444 205.842 252.807 205.216 253.768C204.6 254.72 203.723 255.196 202.584 255.196ZM202.584 254.076C203.322 254.076 203.891 253.698 204.292 252.942C204.703 252.177 204.908 251.089 204.908 249.68C204.908 248.271 204.703 247.188 204.292 246.432C203.891 245.667 203.322 245.284 202.584 245.284C201.847 245.284 201.273 245.667 200.862 246.432C200.461 247.188 200.26 248.271 200.26 249.68C200.26 251.089 200.461 252.177 200.862 252.942C201.273 253.698 201.847 254.076 202.584 254.076ZM211.192 251.248L213.796 255H212.382L210.478 252.102L208.546 255H207.146L209.834 251.136L207.328 247.58H208.728L210.576 250.352L212.34 247.58H213.712L211.192 251.248ZM216.262 253.88H221.106V255H214.638V253.992L217.83 250.31C218.483 249.563 218.95 248.943 219.23 248.448C219.51 247.953 219.65 247.491 219.65 247.062C219.65 246.53 219.477 246.101 219.132 245.774C218.786 245.447 218.334 245.284 217.774 245.284C217.307 245.284 216.887 245.424 216.514 245.704C216.15 245.984 215.846 246.385 215.604 246.908L214.568 246.404C214.848 245.685 215.263 245.135 215.814 244.752C216.374 244.36 217.036 244.164 217.802 244.164C218.408 244.164 218.945 244.281 219.412 244.514C219.878 244.747 220.242 245.079 220.504 245.508C220.765 245.937 220.896 246.437 220.896 247.006C220.896 247.547 220.742 248.121 220.434 248.728C220.126 249.335 219.622 250.039 218.922 250.842L216.262 253.88Z" fill="black"/>
<rect x="260" y="208" width="98" height="28" fill="#CFFAFE" stroke="#0891B2" stroke-width="2"/>
<path d="M301.726 227.196C300.597 227.196 299.719 226.72 299.094 225.768C298.469 224.807 298.156 223.444 298.156 221.68C298.156 219.916 298.469 218.558 299.094 217.606C299.719 216.645 300.597 216.164 301.726 216.164C302.865 216.164 303.742 216.645 304.358 217.606C304.983 218.558 305.296 219.916 305.296 221.68C305.296 223.444 304.983 224.807 304.358 225.768C303.742 226.72 302.865 227.196 301.726 227.196ZM301.726 226.076C302.463 226.076 303.033 225.698 303.434 224.942C303.845 224.177 304.05 223.089 304.05 221.68C304.05 220.271 303.845 219.188 303.434 218.432C303.033 217.667 302.463 217.284 301.726 217.284C300.989 217.284 300.415 217.667 300.004 218.432C299.603 219.188 299.402 220.271 299.402 221.68C299.402 223.089 299.603 224.177 300.004 224.942C300.415 225.698 300.989 226.076 301.726 226.076ZM310.333 223.248L312.937 227H311.523L309.619 224.102L307.687 227H306.287L308.975 223.136L306.469 219.58H307.869L309.717 222.352L311.481 219.58H312.853L310.333 223.248ZM317.055 227H315.837V217.774L313.765 218.866V217.592L316.145 216.36H317.055V227Z" fill="black"/>
<rect x="260" y="236" width="98" height="28" fill="#CFFAFE" stroke="#0891B2" stroke-width="2"/>
<path d="M300.907 255.196C299.777 255.196 298.9 254.72 298.275 253.768C297.649 252.807 297.337 251.444 297.337 249.68C297.337 247.916 297.649 246.558 298.275 245.606C298.9 244.645 299.777 244.164 300.907 244.164C302.045 244.164 302.923 244.645 303.539 245.606C304.164 246.558 304.477 247.916 304.477 249.68C304.477 251.444 304.164 252.807 303.539 253.768C302.923 254.72 302.045 255.196 300.907 255.196ZM300.907 254.076C301.644 254.076 302.213 253.698 302.615 252.942C303.025 252.177 303.231 251.089 303.231 249.68C303.231 248.271 303.025 247.188 302.615 246.432C302.213 245.667 301.644 245.284 300.907 245.284C300.169 245.284 299.595 245.667 299.185 246.432C298.783 247.188 298.583 248.271 298.583 249.68C298.583 251.089 298.783 252.177 299.185 252.942C299.595 253.698 300.169 254.076 300.907 254.076ZM309.514 251.248L312.118 255H310.704L308.8 252.102L306.868 255H305.468L308.156 251.136L305.65 247.58H307.05L308.898 250.352L310.662 247.58H312.034L309.514 251.248ZM316.222 248.728C316.325 248.709 316.483 248.7 316.698 248.7C317.221 248.7 317.715 248.821 318.182 249.064C318.658 249.297 319.045 249.652 319.344 250.128C319.643 250.604 319.792 251.187 319.792 251.878C319.792 252.55 319.647 253.138 319.358 253.642C319.078 254.137 318.681 254.519 318.168 254.79C317.655 255.061 317.057 255.196 316.376 255.196C315.62 255.196 314.934 254.991 314.318 254.58C313.702 254.169 313.259 253.595 312.988 252.858L314.094 252.466C314.533 253.539 315.307 254.076 316.418 254.076C317.062 254.076 317.575 253.88 317.958 253.488C318.35 253.087 318.546 252.55 318.546 251.878C318.546 251.206 318.345 250.674 317.944 250.282C317.552 249.881 317.015 249.68 316.334 249.68C315.933 249.68 315.545 249.787 315.172 250.002L314.5 249.078L317.608 245.48H313.254V244.36H319.204V245.382L316.194 248.672L316.222 248.728Z" fill="black"/>
<path d="M359.707 32.7071C360.098 32.3166 360.098 31.6834 359.707 31.2929L353.343 24.9289C352.953 24.5384 352.319 24.5384 351.929 24.9289C351.538 25.3195 351.538 25.9526 351.929 26.3431L357.586 32L351.929 37.6569C351.538 38.0474 351.538 38.6805 351.929 39.0711C352.319 39.4616 352.953 39.4616 353.343 39.0711L359.707 32.7071ZM33 33H359V31H33V33Z" fill="black"/>
<path d="M32.2929 325.707C32.6834 326.098 33.3166 326.098 33.7071 325.707L40.0711 319.343C40.4616 318.953 40.4616 318.319 40.0711 317.929C39.6805 317.538 39.0474 317.538 38.6569 317.929L33 323.586L27.3431 317.929C26.9526 317.538 26.3195 317.538 25.9289 317.929C25.5384 318.319 25.5384 318.953 25.9289 319.343L32.2929 325.707ZM32 31L32 325H34L34 31H32Z" fill="black"/>
<path d="M126 183L125 183L126 183ZM157.707 212.707C158.098 212.317 158.098 211.683 157.707 211.293L151.343 204.929C150.953 204.538 150.319 204.538 149.929 204.929C149.538 205.319 149.538 205.953 149.929 206.343L155.586 212L149.929 217.657C149.538 218.047 149.538 218.681 149.929 219.071C150.319 219.462 150.953 219.462 151.343 219.071L157.707 212.707ZM157 154C157 153 156.999 153 156.999 153C156.998 153 156.998 153 156.997 153C156.995 153 156.993 153 156.991 153C156.986 153 156.979 153 156.97 153C156.953 153 156.928 153.001 156.896 153.001C156.832 153.002 156.74 153.004 156.621 153.008C156.383 153.015 156.038 153.03 155.601 153.059C154.729 153.117 153.488 153.233 152.002 153.465C149.035 153.928 145.062 154.855 141.076 156.719C137.088 158.585 133.06 161.401 130.029 165.654C126.992 169.916 125 175.561 125 183L127 183C127 175.939 128.883 170.709 131.658 166.815C134.44 162.911 138.162 160.29 141.924 158.531C145.688 156.77 149.465 155.885 152.31 155.441C153.73 155.22 154.912 155.109 155.735 155.054C156.146 155.027 156.467 155.013 156.683 155.007C156.791 155.003 156.873 155.002 156.926 155.001C156.953 155 156.973 155 156.985 155C156.991 155 156.996 155 156.998 155C156.999 155 157 155 157 155C157.001 155 157 155 157.001 155C157 155 157 155 157 154ZM125 183C125 190.439 126.992 196.084 130.029 200.346C133.06 204.599 137.088 207.415 141.076 209.281C145.062 211.145 149.035 212.072 152.002 212.535C153.488 212.767 154.729 212.883 155.601 212.941C156.038 212.97 156.383 212.985 156.621 212.992C156.74 212.996 156.832 212.998 156.896 212.999C156.928 212.999 156.953 213 156.97 213C156.979 213 156.986 213 156.991 213C156.993 213 156.995 213 156.997 213C156.998 213 156.998 213 156.999 213C156.999 213 157 213 157 212C157 211 157 211 157.001 211C157 211 157.001 211 157 211C157 211 156.999 211 156.998 211C156.996 211 156.991 211 156.985 211C156.973 211 156.953 211 156.926 210.999C156.873 210.998 156.791 210.997 156.683 210.993C156.467 210.987 156.146 210.973 155.735 210.946C154.912 210.891 153.73 210.78 152.31 210.559C149.465 210.115 145.688 209.23 141.924 207.469C138.162 205.71 134.44 203.089 131.658 199.185C128.883 195.291 127 190.061 127 183L125 183Z" fill="black"/>
<path d="M126 116L125 116L126 116ZM157.707 145.707C158.098 145.317 158.098 144.683 157.707 144.293L151.343 137.929C150.953 137.538 150.319 137.538 149.929 137.929C149.538 138.319 149.538 138.953 149.929 139.343L155.586 145L149.929 150.657C149.538 151.047 149.538 151.681 149.929 152.071C150.319 152.462 150.953 152.462 151.343 152.071L157.707 145.707ZM157 87C157 86 156.999 86 156.999 86C156.998 86 156.998 86 156.997 86C156.995 86 156.993 86 156.991 86C156.986 86 156.979 86.0001 156.97 86.0001C156.953 86.0003 156.928 86.0005 156.896 86.001C156.832 86.002 156.74 86.0039 156.621 86.0076C156.383 86.015 156.038 86.0297 155.601 86.0589C154.729 86.1172 153.488 86.2334 152.002 86.4651C149.035 86.9277 145.062 87.8549 141.076 89.7192C137.088 91.5846 133.06 94.4014 130.029 98.654C126.992 102.916 125 108.561 125 116L127 116C127 108.939 128.883 103.709 131.658 99.8147C134.44 95.9111 138.162 93.2904 141.924 91.5308C145.688 89.7701 149.465 88.8848 152.31 88.4412C153.73 88.2198 154.912 88.1094 155.735 88.0544C156.146 88.0269 156.467 88.0133 156.683 88.0066C156.791 88.0032 156.873 88.0016 156.926 88.0008C156.953 88.0004 156.973 88.0002 156.985 88.0001C156.991 88 156.996 88 156.998 88C156.999 88 157 88 157 88C157.001 88 157 88 157.001 88C157 88 157 88 157 87ZM125 116C125 123.439 126.992 129.084 130.029 133.346C133.06 137.599 137.088 140.415 141.076 142.281C145.062 144.145 149.035 145.072 152.002 145.535C153.488 145.767 154.729 145.883 155.601 145.941C156.038 145.97 156.383 145.985 156.621 145.992C156.74 145.996 156.832 145.998 156.896 145.999C156.928 145.999 156.953 146 156.97 146C156.979 146 156.986 146 156.991 146C156.993 146 156.995 146 156.997 146C156.998 146 156.998 146 156.999 146C156.999 146 157 146 157 145C157 144 157 144 157.001 144C157 144 157.001 144 157 144C157 144 156.999 144 156.998 144C156.996 144 156.991 144 156.985 144C156.973 144 156.953 144 156.926 143.999C156.873 143.998 156.791 143.997 156.683 143.993C156.467 143.987 156.146 143.973 155.735 143.946C154.912 143.891 153.73 143.78 152.31 143.559C149.465 143.115 145.688 142.23 141.924 140.469C138.162 138.71 134.44 136.089 131.658 132.185C128.883 128.291 127 123.061 127 116L125 116Z" fill="black"/>
<path d="M128 266.25L129 266.233L128 266.25ZM154.951 222.809C155.122 222.284 154.834 221.72 154.309 221.549L145.75 218.767C145.225 218.596 144.66 218.884 144.49 219.409C144.319 219.934 144.606 220.499 145.132 220.669L152.74 223.142L150.267 230.75C150.096 231.275 150.384 231.84 150.909 232.01C151.434 232.181 151.999 231.894 152.169 231.368L154.951 222.809ZM154 310C154.468 309.116 154.468 309.116 154.468 309.116C154.468 309.116 154.468 309.117 154.468 309.116C154.468 309.116 154.467 309.116 154.466 309.115C154.464 309.114 154.461 309.112 154.456 309.11C154.446 309.104 154.43 309.096 154.408 309.084C154.364 309.059 154.297 309.022 154.208 308.972C154.03 308.871 153.765 308.716 153.426 308.508C152.748 308.092 151.771 307.461 150.595 306.608C148.241 304.902 145.093 302.315 141.931 298.8C135.61 291.773 129.245 281.057 129 266.233L127 266.267C127.255 281.693 133.89 292.852 140.444 300.138C143.719 303.778 146.978 306.457 149.421 308.228C150.643 309.113 151.663 309.773 152.381 310.213C152.74 310.433 153.023 310.599 153.219 310.71C153.317 310.766 153.393 310.808 153.446 310.837C153.472 310.852 153.493 310.863 153.507 310.87C153.514 310.874 153.52 310.877 153.524 310.88C153.526 310.881 153.528 310.882 153.529 310.882C153.53 310.883 153.531 310.883 153.531 310.883C153.532 310.884 153.532 310.884 154 310ZM129 266.233C128.755 251.431 135.109 240.73 141.55 233.707C144.772 230.193 148.01 227.607 150.442 225.901C151.657 225.048 152.668 224.416 153.372 224C153.723 223.792 153.998 223.637 154.183 223.536C154.275 223.485 154.345 223.448 154.391 223.424C154.414 223.412 154.431 223.403 154.441 223.398C154.446 223.395 154.45 223.393 154.452 223.392C154.453 223.391 154.454 223.391 154.454 223.391C154.454 223.391 154.454 223.391 154.454 223.391C154.454 223.391 154.454 223.391 154 222.5C153.546 221.609 153.546 221.609 153.545 221.61C153.545 221.61 153.544 221.61 153.543 221.61C153.542 221.611 153.54 221.612 153.538 221.613C153.534 221.615 153.528 221.618 153.52 221.622C153.506 221.63 153.484 221.641 153.457 221.655C153.403 221.684 153.324 221.726 153.222 221.782C153.019 221.893 152.725 222.059 152.353 222.279C151.61 222.719 150.554 223.378 149.293 224.264C146.771 226.034 143.416 228.713 140.075 232.355C133.391 239.645 126.745 250.819 127 266.267L129 266.233Z" fill="black"/>
<path d="M398.584 159.312C399.237 160.264 400.11 161.151 401.202 161.972L400.6 162.994C399.545 162.135 398.677 161.216 397.996 160.236C397.38 161.095 396.498 162.019 395.35 163.008L394.636 162.14C395.868 161.169 396.792 160.208 397.408 159.256C396.82 158.145 396.409 156.848 396.176 155.364C396.027 155.663 395.849 155.98 395.644 156.316L395.098 155.322C395.499 154.65 395.882 153.833 396.246 152.872C396.619 151.911 396.89 151.015 397.058 150.184L398.038 150.366C397.907 151.001 397.707 151.71 397.436 152.494H401.174V153.572H400.11C399.989 154.823 399.807 155.905 399.564 156.82C399.331 157.735 399.004 158.565 398.584 159.312ZM388.756 156.134C389.363 155.807 389.895 155.481 390.352 155.154C390.809 154.827 391.211 154.473 391.556 154.09H388.98V153.208H391.78V150.268H392.732V153.208H395.462V154.09H392.732V154.37C393.077 154.547 393.488 154.771 393.964 155.042C394.44 155.313 394.86 155.569 395.224 155.812L394.776 156.638C394.216 156.209 393.535 155.751 392.732 155.266V156.582H391.78V155C391.155 155.681 390.287 156.344 389.176 156.988L388.756 156.134ZM390.478 152.9C390.151 152.359 389.741 151.738 389.246 151.038L389.89 150.59C390.086 150.851 390.375 151.267 390.758 151.836L391.178 152.452L390.478 152.9ZM395.294 151.066C394.883 151.701 394.435 152.335 393.95 152.97L393.264 152.48C393.469 152.219 393.703 151.901 393.964 151.528C394.225 151.155 394.435 150.842 394.594 150.59L395.294 151.066ZM396.876 153.908C397.044 155.644 397.413 157.091 397.982 158.248C398.281 157.623 398.519 156.932 398.696 156.176C398.883 155.42 399.027 154.552 399.13 153.572H397.016L396.876 153.908ZM394.454 162.336L393.866 162.014L392.69 161.384C391.85 161.972 390.679 162.504 389.176 162.98L388.742 162.084C390.077 161.664 391.08 161.272 391.752 160.908C390.875 160.469 390.175 160.133 389.652 159.9C389.923 159.48 390.17 159.041 390.394 158.584H388.896V157.73H390.8C390.968 157.347 391.108 156.997 391.22 156.68L392.172 156.932C392.041 157.287 391.939 157.553 391.864 157.73H394.93V158.542C394.743 158.999 394.538 159.405 394.314 159.76C394.09 160.105 393.824 160.427 393.516 160.726L394.874 161.412L394.454 162.336ZM390.982 159.55C391.551 159.793 392.102 160.045 392.634 160.306C392.923 160.073 393.166 159.816 393.362 159.536C393.567 159.256 393.745 158.939 393.894 158.584H391.472C391.341 158.864 391.178 159.186 390.982 159.55ZM403.148 155.434L402.952 154.482C403.699 153.511 404.534 152.027 405.458 150.03L406.326 150.45C405.99 151.169 405.621 151.892 405.22 152.62C404.828 153.339 404.483 153.917 404.184 154.356L405.934 154.146C406.186 153.726 406.429 153.278 406.662 152.802L407.544 153.292C406.872 154.561 405.883 156.097 404.576 157.898L407.012 157.548L407.04 158.528L403.386 159.074L403.19 158.066C403.993 157.123 404.711 156.134 405.346 155.098L403.148 155.434ZM414.096 150.87V161.398H415.216V162.392H407.152V161.398H408.286V150.87H414.096ZM413.06 154.384V151.892H409.308V154.384H413.06ZM409.308 157.828H413.06V155.406H409.308V157.828ZM413.06 158.836H409.308V161.398H413.06V158.836ZM402.784 160.908L407.124 160.166L407.18 161.244L402.938 161.958L402.784 160.908ZM428.012 157.114V162.98H426.948V162.084H420.48V162.98H419.43V158.206C418.711 158.458 417.955 158.696 417.162 158.92L416.756 157.94C419.043 157.343 420.979 156.605 422.566 155.728C424.153 154.851 425.497 153.815 426.598 152.62H421.32C421.115 152.844 420.863 153.087 420.564 153.348C421.255 153.861 421.885 154.347 422.454 154.804L421.74 155.616L420.9 154.944L419.766 154.048C419.225 154.515 418.604 154.977 417.904 155.434L417.246 154.524C418.151 153.973 419.052 153.278 419.948 152.438C420.853 151.589 421.581 150.777 422.132 150.002L423.126 150.394C422.902 150.73 422.603 151.136 422.23 151.612H427.998V152.62C427.214 153.553 426.337 154.389 425.366 155.126C424.405 155.863 423.313 156.526 422.09 157.114H428.012ZM420.48 158.108V161.132H426.948V158.108H420.48ZM432.646 150.772H441.242V155.658H432.646V150.772ZM440.178 152.788V151.654H433.724V152.788H440.178ZM433.724 153.642V154.804H440.178V153.642H433.724ZM443.174 161.622L442.978 162.574H437.84C436.701 162.574 435.782 162.439 435.082 162.168C434.391 161.897 433.794 161.407 433.29 160.698C432.889 161.519 432.301 162.331 431.526 163.134L430.742 162.378C431.377 161.753 431.871 161.118 432.226 160.474C432.59 159.83 432.865 159.06 433.052 158.164L434.074 158.346C433.999 158.71 433.883 159.144 433.724 159.648C434.06 160.236 434.457 160.679 434.914 160.978C435.371 161.267 435.927 161.459 436.58 161.552V157.702H430.966V156.792H443.02V157.702H437.644V159.018H442.054V159.914H437.644V161.622H437.812H443.174ZM456.684 152.41V155.168H455.662V153.348H446.38V155.154H445.344V152.41H448.102C447.355 151.663 446.833 151.15 446.534 150.87L447.248 150.226C447.453 150.403 447.957 150.879 448.76 151.654L449.012 151.892L448.48 152.41H450.51V150.086H451.532V152.41H453.464L452.96 151.962C453.231 151.719 453.539 151.43 453.884 151.094C454.229 150.758 454.509 150.469 454.724 150.226L455.41 150.828C454.663 151.631 454.155 152.158 453.884 152.41H456.684ZM451.532 157.254V158.36H455.956V160.81C455.956 161.155 455.905 161.421 455.802 161.608C455.709 161.795 455.55 161.925 455.326 162C455.102 162.084 454.78 162.126 454.36 162.126H452.876L452.708 161.174H454.052C454.313 161.174 454.505 161.155 454.626 161.118C454.757 161.081 454.841 161.015 454.878 160.922C454.915 160.819 454.934 160.661 454.934 160.446V159.27H451.532V162.938H450.51V159.27H447.122V162.084H446.114V158.36H450.51V157.254H447.066V154.398H454.976V157.254H451.532ZM453.982 155.252H448.06V156.442H453.982V155.252ZM460.24 150.632H469.732V153.922H460.24V150.632ZM468.71 151.948V151.318H461.29V151.948H468.71ZM461.29 152.592V153.25H468.71V152.592H461.29ZM458.77 155.392V154.65H471.216V155.392H458.77ZM470.152 161.104H465.504V161.846H471.076V162.588H458.91V161.846H464.496V161.104H459.834V160.376H464.496V159.62H460.24V156.148H469.746V159.62H465.504V160.376H470.152V161.104ZM464.496 157.534V156.82H461.276V157.534H464.496ZM465.504 157.534H468.71V156.82H465.504V157.534ZM461.276 158.206V158.92H464.496V158.206H461.276ZM465.504 158.206V158.92H468.71V158.206H465.504ZM474.534 163.526C474.889 163.358 475.145 163.153 475.304 162.91C475.472 162.667 475.556 162.364 475.556 162H474.758V160.53H476.214V162C476.214 162.943 475.766 163.643 474.87 164.1L474.534 163.526ZM494.442 152.172C494.153 152.704 493.849 153.213 493.532 153.698V162.966H492.412V155.266C491.105 156.918 489.491 158.486 487.568 159.97L486.854 158.99C488.254 158.01 489.486 156.941 490.55 155.784C491.623 154.627 492.501 153.423 493.182 152.172H487.274V151.08H498.81V152.172H494.442ZM494.848 155.126C496.733 156.731 498.161 157.996 499.132 158.92L498.348 159.844C497.555 159.023 496.169 157.735 494.19 155.98L494.848 155.126ZM513.16 151.038V152.074H511.424V160.754C511.424 161.286 511.363 161.687 511.242 161.958C511.13 162.229 510.925 162.415 510.626 162.518C510.337 162.63 509.898 162.686 509.31 162.686H507.448L507.252 161.608H509.072C509.445 161.608 509.716 161.58 509.884 161.524C510.052 161.468 510.169 161.365 510.234 161.216C510.299 161.057 510.332 160.805 510.332 160.46V152.074H500.84V151.038H513.16ZM502.282 154.16H507.938V159.704H502.282V154.16ZM503.304 158.696H506.888V155.182H503.304V158.696ZM519.012 156.218V152.69H515.092V151.71H520.622C520.463 151.169 520.309 150.707 520.16 150.324L521.28 150.1C521.523 150.8 521.695 151.337 521.798 151.71H526.936V152.69H523.016V156.218H522.008V152.69H520.02V156.218H519.012ZM518.326 154.104C517.925 154.561 517.467 155.023 516.954 155.49C516.441 155.957 515.909 156.377 515.358 156.75L514.798 155.938C515.965 155.107 516.917 154.277 517.654 153.446L518.326 154.104ZM524.332 153.446C524.873 153.866 525.471 154.347 526.124 154.888L527.174 155.742L526.586 156.582L526.194 156.246C525.065 155.285 524.243 154.608 523.73 154.216L524.332 153.446ZM524.99 157.828C524.589 158.425 524.155 158.953 523.688 159.41C523.221 159.867 522.689 160.283 522.092 160.656C523.361 161.141 525.037 161.552 527.118 161.888L526.782 162.966C524.383 162.509 522.456 161.935 521 161.244C520.291 161.589 519.465 161.907 518.522 162.196C517.589 162.485 516.483 162.77 515.204 163.05L514.868 162.014C516.856 161.659 518.527 161.202 519.88 160.642C518.751 159.933 517.743 159.004 516.856 157.856V156.904H524.99V157.828ZM518.13 157.856C518.55 158.351 518.984 158.785 519.432 159.158C519.889 159.522 520.393 159.849 520.944 160.138C522.092 159.513 523.002 158.752 523.674 157.856H518.13Z" fill="black"/>
<path d="M391.626 304.254V306.732H393.11V307.74H391.626V310.232L392.354 309.98L392.816 309.812L393.012 310.862L391.626 311.338V315.328C391.626 315.692 391.579 315.972 391.486 316.168C391.393 316.364 391.234 316.499 391.01 316.574C390.795 316.658 390.473 316.7 390.044 316.7H389.134L388.938 315.706H389.736C390.025 315.706 390.221 315.697 390.324 315.678C390.436 315.65 390.506 315.589 390.534 315.496C390.571 315.403 390.59 315.23 390.59 314.978V311.688L388.98 312.248L388.784 311.198L390.59 310.596V307.74H389.078V306.732H390.59V304.254H391.626ZM400.908 306.83C400.908 306.923 400.899 307.091 400.88 307.334C400.861 307.567 400.843 307.805 400.824 308.048C400.796 308.412 400.726 308.692 400.614 308.888C400.511 309.075 400.348 309.21 400.124 309.294C399.909 309.369 399.597 309.406 399.186 309.406H395.392C394.785 309.406 394.361 309.289 394.118 309.056C393.875 308.823 393.754 308.398 393.754 307.782V304.31H394.776V306.214C395.532 306.065 396.437 305.85 397.492 305.57C398.547 305.281 399.433 305.015 400.152 304.772L400.432 305.738C399.676 305.981 398.761 306.237 397.688 306.508C396.615 306.779 395.644 307.003 394.776 307.18V307.6C394.776 307.945 394.832 308.179 394.944 308.3C395.065 308.421 395.294 308.482 395.63 308.482H398.808C399.219 308.482 399.494 308.426 399.634 308.314C399.783 308.202 399.863 307.973 399.872 307.628L399.9 306.634L400.908 306.83ZM394.72 316.924H393.712V310.568H400.306V316.91H399.256V316.238H394.72V316.924ZM399.256 312.948V311.464H394.72V312.948H399.256ZM394.72 313.872V315.328H399.256V313.872H394.72ZM405.864 315.104L408.16 313.83L408.342 314.88L404.856 316.784L404.338 315.846C404.515 315.725 404.637 315.613 404.702 315.51C404.777 315.398 404.814 315.258 404.814 315.09V312.248H402.854V311.24H404.814V309.434H403.68V308.888C403.493 309.168 403.349 309.373 403.246 309.504L402.672 308.538C403.073 307.997 403.461 307.315 403.834 306.494C404.217 305.673 404.553 304.823 404.842 303.946L405.822 304.226C405.663 304.73 405.463 305.29 405.22 305.906H408.398V306.886H404.786C404.534 307.437 404.259 307.959 403.96 308.454H407.866V309.434H405.864V311.24H408.244V312.248H405.864V315.104ZM412.248 308.888H415.16V309.98H412.248V316.91H411.142V309.98H408.3V308.888H411.142V304.156H412.248V308.888ZM428.684 306.312C428.656 307.32 428.609 308.748 428.544 310.596C428.488 312.435 428.441 313.849 428.404 314.838C428.385 315.286 428.306 315.641 428.166 315.902C428.035 316.154 427.821 316.336 427.522 316.448C427.233 316.56 426.836 316.616 426.332 316.616H424.568L424.358 315.524H426.01C426.374 315.524 426.649 315.491 426.836 315.426C427.032 315.361 427.172 315.244 427.256 315.076C427.34 314.899 427.387 314.642 427.396 314.306L427.522 310.638L427.62 307.376H424.372C424.083 308.067 423.742 308.739 423.35 309.392L422.426 308.776C422.865 308.113 423.266 307.329 423.63 306.424C424.003 305.509 424.283 304.655 424.47 303.862L425.506 304.114C425.329 304.833 425.095 305.565 424.806 306.312H428.684ZM420.606 304.156C420.494 304.716 420.317 305.421 420.074 306.27H422.272V315.902H418.464V316.826H417.456V306.27H418.94C419.117 305.729 419.304 304.959 419.5 303.96L420.606 304.156ZM418.464 310.568H421.264V307.348H418.464V310.568ZM425.436 312.878C424.839 311.954 424.171 311.021 423.434 310.078L424.204 309.448C425.035 310.456 425.744 311.389 426.332 312.248L425.436 312.878ZM418.464 311.646V314.824H421.264V311.646H418.464ZM442.208 306.34V315.006C442.208 315.473 442.157 315.823 442.054 316.056C441.951 316.299 441.769 316.462 441.508 316.546C441.247 316.639 440.864 316.686 440.36 316.686H438.596L438.386 315.622H440.038C440.374 315.622 440.617 315.599 440.766 315.552C440.925 315.505 441.027 315.417 441.074 315.286C441.13 315.155 441.158 314.945 441.158 314.656V307.404H437.532C437.513 308.113 437.439 308.753 437.308 309.322C437.924 309.919 439.072 311.086 440.752 312.822L440.01 313.662C439.273 312.859 438.241 311.777 436.916 310.414C436.645 311.011 436.267 311.595 435.782 312.164C435.297 312.724 434.671 313.307 433.906 313.914L433.206 313.004C434.046 312.351 434.699 311.744 435.166 311.184C435.633 310.624 435.964 310.05 436.16 309.462C436.356 308.874 436.463 308.188 436.482 307.404H432.856V316.826H431.792V306.34H436.482V304.198H437.532V306.34H442.208ZM446.478 306.578V307.894H445.456V305.612H450.65C450.463 305.033 450.3 304.562 450.16 304.198L451.28 303.974C451.327 304.077 451.462 304.501 451.686 305.248L451.798 305.612H456.516V307.922H455.48V306.578H446.478ZM449.922 307.964C448.615 308.851 447.271 309.611 445.89 310.246L445.456 309.308C446.081 309.056 446.749 308.734 447.458 308.342C448.177 307.95 448.835 307.553 449.432 307.152L449.922 307.964ZM452.442 307.152L454.794 308.356C455.466 308.72 456.082 309.042 456.642 309.322L456.18 310.204C455.676 309.905 455.004 309.537 454.164 309.098C453.333 308.65 452.605 308.263 451.98 307.936L452.442 307.152ZM456.88 313.438C456.245 313.195 455.643 312.929 455.074 312.64V316.924H454.052V316.322H447.934V316.924H446.912V312.64C446.305 312.939 445.694 313.205 445.078 313.438L444.672 312.486C446.025 311.973 447.173 311.427 448.116 310.848C449.068 310.26 449.875 309.602 450.538 308.874H451.462C452.143 309.621 452.955 310.288 453.898 310.876C454.85 311.455 455.984 311.987 457.3 312.472L456.88 313.438ZM454.71 312.458C453.161 311.637 451.924 310.727 451 309.728C450.02 310.764 448.774 311.674 447.262 312.458H454.71ZM447.934 313.424V315.398H454.052V313.424H447.934ZM460.646 304.772H469.242V309.658H460.646V304.772ZM468.178 306.788V305.654H461.724V306.788H468.178ZM461.724 307.642V308.804H468.178V307.642H461.724ZM471.174 315.622L470.978 316.574H465.84C464.701 316.574 463.782 316.439 463.082 316.168C462.391 315.897 461.794 315.407 461.29 314.698C460.889 315.519 460.301 316.331 459.526 317.134L458.742 316.378C459.377 315.753 459.871 315.118 460.226 314.474C460.59 313.83 460.865 313.06 461.052 312.164L462.074 312.346C461.999 312.71 461.883 313.144 461.724 313.648C462.06 314.236 462.457 314.679 462.914 314.978C463.371 315.267 463.927 315.459 464.58 315.552V311.702H458.966V310.792H471.02V311.702H465.644V313.018H470.054V313.914H465.644V315.622H465.812H471.174ZM485.16 305.038V306.074H483.424V314.754C483.424 315.286 483.363 315.687 483.242 315.958C483.13 316.229 482.925 316.415 482.626 316.518C482.337 316.63 481.898 316.686 481.31 316.686H479.448L479.252 315.608H481.072C481.445 315.608 481.716 315.58 481.884 315.524C482.052 315.468 482.169 315.365 482.234 315.216C482.299 315.057 482.332 314.805 482.332 314.46V306.074H472.84V305.038H485.16ZM474.282 308.16H479.938V313.704H474.282V308.16ZM475.304 312.696H478.888V309.182H475.304V312.696ZM491.012 310.218V306.69H487.092V305.71H492.622C492.463 305.169 492.309 304.707 492.16 304.324L493.28 304.1C493.523 304.8 493.695 305.337 493.798 305.71H498.936V306.69H495.016V310.218H494.008V306.69H492.02V310.218H491.012ZM490.326 308.104C489.925 308.561 489.467 309.023 488.954 309.49C488.441 309.957 487.909 310.377 487.358 310.75L486.798 309.938C487.965 309.107 488.917 308.277 489.654 307.446L490.326 308.104ZM496.332 307.446C496.873 307.866 497.471 308.347 498.124 308.888L499.174 309.742L498.586 310.582L498.194 310.246C497.065 309.285 496.243 308.608 495.73 308.216L496.332 307.446ZM496.99 311.828C496.589 312.425 496.155 312.953 495.688 313.41C495.221 313.867 494.689 314.283 494.092 314.656C495.361 315.141 497.037 315.552 499.118 315.888L498.782 316.966C496.383 316.509 494.456 315.935 493 315.244C492.291 315.589 491.465 315.907 490.522 316.196C489.589 316.485 488.483 316.77 487.204 317.05L486.868 316.014C488.856 315.659 490.527 315.202 491.88 314.642C490.751 313.933 489.743 313.004 488.856 311.856V310.904H496.99V311.828ZM490.13 311.856C490.55 312.351 490.984 312.785 491.432 313.158C491.889 313.522 492.393 313.849 492.944 314.138C494.092 313.513 495.002 312.752 495.674 311.856H490.13ZM512.684 306.312C512.656 307.32 512.609 308.748 512.544 310.596C512.488 312.435 512.441 313.849 512.404 314.838C512.385 315.286 512.306 315.641 512.166 315.902C512.035 316.154 511.821 316.336 511.522 316.448C511.233 316.56 510.836 316.616 510.332 316.616H508.568L508.358 315.524H510.01C510.374 315.524 510.649 315.491 510.836 315.426C511.032 315.361 511.172 315.244 511.256 315.076C511.34 314.899 511.387 314.642 511.396 314.306L511.522 310.638L511.62 307.376H508.372C508.083 308.067 507.742 308.739 507.35 309.392L506.426 308.776C506.865 308.113 507.266 307.329 507.63 306.424C508.003 305.509 508.283 304.655 508.47 303.862L509.506 304.114C509.329 304.833 509.095 305.565 508.806 306.312H512.684ZM504.606 304.156C504.494 304.716 504.317 305.421 504.074 306.27H506.272V315.902H502.464V316.826H501.456V306.27H502.94C503.117 305.729 503.304 304.959 503.5 303.96L504.606 304.156ZM502.464 310.568H505.264V307.348H502.464V310.568ZM509.436 312.878C508.839 311.954 508.171 311.021 507.434 310.078L508.204 309.448C509.035 310.456 509.744 311.389 510.332 312.248L509.436 312.878ZM502.464 311.646V314.824H505.264V311.646H502.464Z" fill="black"/>
<path d="M177.378 230.374H176.216V225.95H176.132C175.889 226.351 175.567 226.659 175.166 226.874C174.774 227.089 174.331 227.196 173.836 227.196C173.229 227.196 172.683 227.028 172.198 226.692C171.713 226.347 171.33 225.871 171.05 225.264C170.779 224.657 170.644 223.976 170.644 223.22C170.644 222.483 170.779 221.825 171.05 221.246C171.33 220.658 171.713 220.205 172.198 219.888C172.683 219.561 173.229 219.398 173.836 219.398C174.284 219.398 174.709 219.51 175.11 219.734C175.511 219.958 175.852 220.266 176.132 220.658H176.216V219.58H177.378V230.374ZM176.258 223.304C176.258 222.772 176.165 222.296 175.978 221.876C175.791 221.456 175.53 221.129 175.194 220.896C174.867 220.663 174.494 220.546 174.074 220.546C173.645 220.546 173.257 220.663 172.912 220.896C172.576 221.129 172.31 221.456 172.114 221.876C171.927 222.296 171.834 222.772 171.834 223.304C171.834 223.836 171.932 224.312 172.128 224.732C172.324 225.152 172.595 225.479 172.94 225.712C173.285 225.945 173.677 226.062 174.116 226.062C174.527 226.062 174.895 225.945 175.222 225.712C175.549 225.479 175.801 225.152 175.978 224.732C176.165 224.312 176.258 223.836 176.258 223.304Z" fill="black"/>
</svg>
