<svg width="2578" height="642" viewBox="0 0 2578 642" fill="none" xmlns="http://www.w3.org/2000/svg">
<rect x="2" y="2" width="296" height="96" fill="white" stroke="#595959" stroke-width="4"/>
<rect x="2" y="98" width="296" height="96" fill="white" stroke="#595959" stroke-width="4"/>
<rect x="436" y="2" width="296" height="96" fill="#79FFC7" stroke="#595959" stroke-width="4"/>
<rect x="2" y="194" width="296" height="96" fill="white" stroke="#595959" stroke-width="4"/>
<rect x="2" y="290" width="296" height="96" fill="white" stroke="#595959" stroke-width="4"/>
<path d="M329.293 52.2929C328.902 52.6834 328.902 53.3166 329.293 53.7071L335.657 60.0711C336.047 60.4616 336.681 60.4616 337.071 60.0711C337.462 59.6806 337.462 59.0474 337.071 58.6569L331.414 53L337.071 47.3432C337.462 46.9526 337.462 46.3195 337.071 45.9289C336.681 45.5384 336.047 45.5384 335.657 45.9289L329.293 52.2929ZM425 52L330 52L330 54L425 54L425 52Z" fill="black"/>
<path d="M309.8 585.7C313.033 592.267 318.217 597.917 325.35 602.65L323.25 606.1C319.983 603.867 317.033 601.35 314.4 598.55C311.767 595.75 309.617 592.8 307.95 589.7C304.85 595.333 299.867 600.683 293 605.75L290.6 602.55C294.2 600.017 297.25 597.383 299.75 594.65C302.25 591.917 304.333 588.933 306 585.7H309.8ZM287.85 601.2C286.983 599.333 285.383 596.1 283.05 591.5L281.7 588.8L284.9 587.15C287.567 591.983 289.683 596.033 291.25 599.3L287.85 601.2ZM305.75 598.25C307.95 600.817 309.9 603.15 311.6 605.25L308.85 607.65C306.483 604.617 304.55 602.25 303.05 600.55L305.75 598.25ZM290.05 608.9L291.7 609.3C291.033 611.533 289.983 614.717 288.55 618.85C287.15 622.983 286.05 626.083 285.25 628.15L281.55 626.95C282.317 624.95 283.383 621.983 284.75 618.05C286.117 614.117 287.217 610.867 288.05 608.3L290.05 608.9ZM294 612.75V609.2H320.65V612.85C319.283 614.483 317.633 616.35 315.7 618.45C313.767 620.55 311.933 622.467 310.2 624.2L316.45 628.2L314.4 631.5C311.467 629.567 308.2 627.45 304.6 625.15C301.033 622.817 298.133 620.95 295.9 619.55L297.95 616.45C300.15 617.783 303.167 619.683 307 622.15C308.567 620.55 310.217 618.817 311.95 616.95C313.717 615.083 314.983 613.683 315.75 612.75H294ZM358.15 592.9C357.117 594.8 356.033 596.617 354.9 598.35V631.45H350.9V603.95C346.233 609.85 340.467 615.45 333.6 620.75L331.05 617.25C336.05 613.75 340.45 609.933 344.25 605.8C348.083 601.667 351.217 597.367 353.65 592.9H332.55V589H373.75V592.9H358.15ZM359.6 603.45C366.333 609.183 371.433 613.7 374.9 617L372.1 620.3C369.267 617.367 364.317 612.767 357.25 606.5L359.6 603.45ZM404.8 585.5C407.133 588.033 410.05 590.55 413.55 593.05C417.083 595.517 420.933 597.8 425.1 599.9L423.4 603.55C419.4 601.417 415.583 599.067 411.95 596.5C408.35 593.933 405.367 591.4 403 588.9C400.7 591.333 397.767 593.817 394.2 596.35C390.667 598.85 386.817 601.25 382.65 603.55L380.9 599.85C385.067 597.75 388.9 595.467 392.4 593C395.9 590.533 398.8 588.033 401.1 585.5H404.8ZM391.4 598.75H414.45V602.4H391.4V598.75ZM404.25 631.45V607.25H421.15V620.05C421.15 621.617 420.967 622.833 420.6 623.7C420.233 624.533 419.617 625.133 418.75 625.5C417.883 625.833 416.65 626 415.05 626H410.9L410.2 622.4H413.75C415.317 622.4 416.35 622.183 416.85 621.75C417.35 621.283 417.6 620.4 417.6 619.1V610.7H407.8V631.45H404.25ZM384.95 625.25V607.45H399.5V625.25H384.95ZM396.05 621.7V610.9H388.45V621.7H396.05ZM454.85 585.6V595.4H472V616H454.85V631.4H451V616H434V595.4H451V585.6H454.85ZM437.9 599.3V612.15H451V599.3H437.9ZM454.85 599.3V612.15H468.1V599.3H454.85Z" fill="black"/>
<path d="M110.94 461.218L110.394 458.404C112.41 455.548 114.748 451.11 117.408 445.09L119.802 446.266C117.142 452.034 115.168 455.954 113.88 458.026L118.668 457.396C119.48 455.94 120.152 454.624 120.684 453.448L123.204 454.96C121.328 458.712 118.57 463.29 114.93 468.694L121.65 467.56L121.776 470.584L111.57 472.222L110.982 469.156C113.166 466.356 115.182 463.388 117.03 460.252L110.94 461.218ZM146.598 449.164C141.418 449.864 133.676 450.48 123.372 451.012L123.162 448.282C126.97 448.142 131.03 447.904 135.342 447.568C139.682 447.232 143.294 446.854 146.178 446.434L146.598 449.164ZM147.564 465.208H130.722C130.414 466.384 130.106 467.42 129.798 468.316H144.288V471.004C142.776 473.524 140.802 475.75 138.366 477.682C140.69 478.97 143.742 480.02 147.522 480.832L146.472 483.772C142.244 482.568 138.786 481.07 136.098 479.278C132.934 481.294 129.182 482.876 124.842 484.024L123.792 481.252C127.824 480.272 131.184 479.026 133.872 477.514C131.94 475.834 130.246 473.678 128.79 471.046C127.11 475.05 124.576 478.872 121.188 482.512L119.088 480.37C119.704 479.754 120.152 479.278 120.432 478.942L110.856 480.664L110.436 477.43L122.028 475.372L122.112 476.968C123.484 475.232 124.632 473.426 125.556 471.55C126.48 469.646 127.25 467.532 127.866 465.208H122.154V462.688H128.454C128.706 461.26 128.902 460.084 129.042 459.16H123.54V456.598H127.194C126.718 455.45 126.032 454.008 125.136 452.272L127.32 451.264C127.684 451.908 128.09 452.692 128.538 453.616C128.986 454.512 129.322 455.226 129.546 455.758L127.656 456.598H139.248C140.452 454.47 141.46 452.44 142.272 450.508L144.624 451.348C144.176 452.524 143.322 454.274 142.062 456.598H146.682V459.16H131.856C131.716 460.084 131.52 461.26 131.268 462.688H147.564V465.208ZM134.586 456.43C133.718 454.162 133.074 452.566 132.654 451.642L134.922 450.76C135.23 451.404 135.58 452.188 135.972 453.112C136.364 454.036 136.7 454.862 136.98 455.59L134.586 456.43ZM136.056 476.086C138.072 474.658 139.738 472.936 141.054 470.92H131.604C132.864 473.02 134.348 474.742 136.056 476.086ZM189.48 449.92V452.944H166.884C165.428 456.164 163.72 459.188 161.76 462.016V483.772H158.652V465.964C157.084 467.784 155.418 469.52 153.654 471.172L152.184 467.938C156.776 463.654 160.43 458.656 163.146 452.944H152.94V449.92H164.448C165.036 448.492 165.596 446.924 166.128 445.216L169.572 445.636C169.012 447.456 168.522 448.884 168.102 449.92H189.48ZM178.896 466.93V468.232H189.48V471.13H178.896V478.564C178.896 479.796 178.742 480.748 178.434 481.42C178.126 482.092 177.58 482.568 176.796 482.848C176.04 483.156 174.934 483.31 173.478 483.31H168.774L168.144 480.328H172.428C173.352 480.328 174.038 480.258 174.486 480.118C174.962 479.978 175.284 479.74 175.452 479.404C175.62 479.04 175.704 478.508 175.704 477.808V471.13H163.902V468.232H175.704V465.544L182.214 460.966H166.842V458.068H187.212V460.966L178.896 466.93Z" fill="#8E8E8E"/>
<rect x="932" y="2" width="296" height="96" fill="#ABFCFF" stroke="#595959" stroke-width="4"/>
<rect x="932" y="98" width="296" height="96" fill="white" stroke="#595959" stroke-width="4"/>
<rect x="1358" y="2" width="296" height="96" fill="#79FFC7" stroke="#595959" stroke-width="4"/>
<rect x="932" y="194" width="296" height="96" fill="white" stroke="#595959" stroke-width="4"/>
<rect x="932" y="290" width="296" height="96" fill="white" stroke="#595959" stroke-width="4"/>
<path d="M1251.29 52.2929C1250.9 52.6834 1250.9 53.3166 1251.29 53.7071L1257.66 60.0711C1258.05 60.4616 1258.68 60.4616 1259.07 60.0711C1259.46 59.6806 1259.46 59.0474 1259.07 58.6569L1253.41 53L1259.07 47.3432C1259.46 46.9526 1259.46 46.3195 1259.07 45.9289C1258.68 45.5384 1258.05 45.5384 1257.66 45.9289L1251.29 52.2929ZM1347 52L1252 52L1252 54L1347 54L1347 52Z" fill="black"/>
<path d="M1210.35 585.6V594.85H1222.4V616.05H1210.35V631.4H1206.65V616.05H1194.6V594.85H1206.65V585.6H1210.35ZM1184.9 587.6C1187.53 592.233 1189.92 596.583 1192.05 600.65L1188.75 602.65C1187.72 600.583 1186.47 598.183 1185 595.45C1183.57 592.717 1182.45 590.667 1181.65 589.3L1184.9 587.6ZM1198.35 598.6V612.15H1206.65V598.6H1198.35ZM1210.35 598.6V612.15H1218.55V598.6H1210.35ZM1189.85 608.1L1191.85 608.85C1191.15 611.017 1190.02 614.283 1188.45 618.65C1186.92 622.983 1185.72 626.217 1184.85 628.35L1181.25 626.85C1182.22 624.583 1183.48 621.317 1185.05 617.05C1186.62 612.783 1187.68 609.633 1188.25 607.6L1189.85 608.1ZM1237 594.6V599.95H1233.1V591.2H1252.1L1249.45 585.85L1253.3 585.25C1253.53 585.65 1253.97 586.483 1254.6 587.75C1255.27 588.983 1255.85 590.133 1256.35 591.2H1272.9V600H1269V594.6H1237ZM1249.9 600.4C1243.2 603.867 1237.68 606.383 1233.35 607.95L1231.85 604.3C1234.62 603.4 1237.47 602.317 1240.4 601.05C1243.33 599.75 1245.97 598.45 1248.3 597.15L1249.9 600.4ZM1256.9 597.15C1258.63 597.85 1262.43 599.45 1268.3 601.95L1274.05 604.4L1272.7 607.8C1264.17 603.8 1258.43 601.317 1255.5 600.35L1256.9 597.15ZM1254.2 614.8C1255.47 617.7 1257.77 620.167 1261.1 622.2C1264.43 624.233 1269.1 625.967 1275.1 627.4L1273.5 631.4C1267.97 629.867 1263.52 628.083 1260.15 626.05C1256.78 624.017 1254.27 621.583 1252.6 618.75C1251.2 621.45 1248.88 623.833 1245.65 625.9C1242.42 627.967 1238.03 629.817 1232.5 631.45L1230.9 627.8C1236.83 626.2 1241.3 624.367 1244.3 622.3C1247.33 620.2 1249.25 617.7 1250.05 614.8H1231.7V611.15H1250.5V611.1V604.2H1254.3V611.05V611.15H1263.7C1262.6 610.017 1261.02 608.45 1258.95 606.45L1261.15 604.15C1262.18 605.083 1263.92 606.767 1266.35 609.2L1264.15 611.15H1274.05V614.8H1254.2ZM1308.15 592.9C1307.12 594.8 1306.03 596.617 1304.9 598.35V631.45H1300.9V603.95C1296.23 609.85 1290.47 615.45 1283.6 620.75L1281.05 617.25C1286.05 613.75 1290.45 609.933 1294.25 605.8C1298.08 601.667 1301.22 597.367 1303.65 592.9H1282.55V589H1323.75V592.9H1308.15ZM1309.6 603.45C1316.33 609.183 1321.43 613.7 1324.9 617L1322.1 620.3C1319.27 617.367 1314.32 612.767 1307.25 606.5L1309.6 603.45ZM1354.8 585.5C1357.13 588.033 1360.05 590.55 1363.55 593.05C1367.08 595.517 1370.93 597.8 1375.1 599.9L1373.4 603.55C1369.4 601.417 1365.58 599.067 1361.95 596.5C1358.35 593.933 1355.37 591.4 1353 588.9C1350.7 591.333 1347.77 593.817 1344.2 596.35C1340.67 598.85 1336.82 601.25 1332.65 603.55L1330.9 599.85C1335.07 597.75 1338.9 595.467 1342.4 593C1345.9 590.533 1348.8 588.033 1351.1 585.5H1354.8ZM1341.4 598.75H1364.45V602.4H1341.4V598.75ZM1354.25 631.45V607.25H1371.15V620.05C1371.15 621.617 1370.97 622.833 1370.6 623.7C1370.23 624.533 1369.62 625.133 1368.75 625.5C1367.88 625.833 1366.65 626 1365.05 626H1360.9L1360.2 622.4H1363.75C1365.32 622.4 1366.35 622.183 1366.85 621.75C1367.35 621.283 1367.6 620.4 1367.6 619.1V610.7H1357.8V631.45H1354.25ZM1334.95 625.25V607.45H1349.5V625.25H1334.95ZM1346.05 621.7V610.9H1338.45V621.7H1346.05ZM1404.85 585.6V595.4H1422V616H1404.85V631.4H1401V616H1384V595.4H1401V585.6H1404.85ZM1387.9 599.3V612.15H1401V599.3H1387.9ZM1404.85 599.3V612.15H1418.1V599.3H1404.85Z" fill="black"/>
<path d="M1040.94 461.218L1040.39 458.404C1042.41 455.548 1044.75 451.11 1047.41 445.09L1049.8 446.266C1047.14 452.034 1045.17 455.954 1043.88 458.026L1048.67 457.396C1049.48 455.94 1050.15 454.624 1050.68 453.448L1053.2 454.96C1051.33 458.712 1048.57 463.29 1044.93 468.694L1051.65 467.56L1051.78 470.584L1041.57 472.222L1040.98 469.156C1043.17 466.356 1045.18 463.388 1047.03 460.252L1040.94 461.218ZM1076.6 449.164C1071.42 449.864 1063.68 450.48 1053.37 451.012L1053.16 448.282C1056.97 448.142 1061.03 447.904 1065.34 447.568C1069.68 447.232 1073.29 446.854 1076.18 446.434L1076.6 449.164ZM1077.56 465.208H1060.72C1060.41 466.384 1060.11 467.42 1059.8 468.316H1074.29V471.004C1072.78 473.524 1070.8 475.75 1068.37 477.682C1070.69 478.97 1073.74 480.02 1077.52 480.832L1076.47 483.772C1072.24 482.568 1068.79 481.07 1066.1 479.278C1062.93 481.294 1059.18 482.876 1054.84 484.024L1053.79 481.252C1057.82 480.272 1061.18 479.026 1063.87 477.514C1061.94 475.834 1060.25 473.678 1058.79 471.046C1057.11 475.05 1054.58 478.872 1051.19 482.512L1049.09 480.37C1049.7 479.754 1050.15 479.278 1050.43 478.942L1040.86 480.664L1040.44 477.43L1052.03 475.372L1052.11 476.968C1053.48 475.232 1054.63 473.426 1055.56 471.55C1056.48 469.646 1057.25 467.532 1057.87 465.208H1052.15V462.688H1058.45C1058.71 461.26 1058.9 460.084 1059.04 459.16H1053.54V456.598H1057.19C1056.72 455.45 1056.03 454.008 1055.14 452.272L1057.32 451.264C1057.68 451.908 1058.09 452.692 1058.54 453.616C1058.99 454.512 1059.32 455.226 1059.55 455.758L1057.66 456.598H1069.25C1070.45 454.47 1071.46 452.44 1072.27 450.508L1074.62 451.348C1074.18 452.524 1073.32 454.274 1072.06 456.598H1076.68V459.16H1061.86C1061.72 460.084 1061.52 461.26 1061.27 462.688H1077.56V465.208ZM1064.59 456.43C1063.72 454.162 1063.07 452.566 1062.65 451.642L1064.92 450.76C1065.23 451.404 1065.58 452.188 1065.97 453.112C1066.36 454.036 1066.7 454.862 1066.98 455.59L1064.59 456.43ZM1066.06 476.086C1068.07 474.658 1069.74 472.936 1071.05 470.92H1061.6C1062.86 473.02 1064.35 474.742 1066.06 476.086ZM1119.48 449.92V452.944H1096.88C1095.43 456.164 1093.72 459.188 1091.76 462.016V483.772H1088.65V465.964C1087.08 467.784 1085.42 469.52 1083.65 471.172L1082.18 467.938C1086.78 463.654 1090.43 458.656 1093.15 452.944H1082.94V449.92H1094.45C1095.04 448.492 1095.6 446.924 1096.13 445.216L1099.57 445.636C1099.01 447.456 1098.52 448.884 1098.1 449.92H1119.48ZM1108.9 466.93V468.232H1119.48V471.13H1108.9V478.564C1108.9 479.796 1108.74 480.748 1108.43 481.42C1108.13 482.092 1107.58 482.568 1106.8 482.848C1106.04 483.156 1104.93 483.31 1103.48 483.31H1098.77L1098.14 480.328H1102.43C1103.35 480.328 1104.04 480.258 1104.49 480.118C1104.96 479.978 1105.28 479.74 1105.45 479.404C1105.62 479.04 1105.7 478.508 1105.7 477.808V471.13H1093.9V468.232H1105.7V465.544L1112.21 460.966H1096.84V458.068H1117.21V460.966L1108.9 466.93Z" fill="#8E8E8E"/>
<rect x="1854" y="2" width="296" height="96" fill="#ABFCFF" stroke="#595959" stroke-width="4"/>
<rect x="1854" y="98" width="296" height="96" fill="white" stroke="#595959" stroke-width="4"/>
<rect x="2280" y="2" width="296" height="96" fill="#79FFC7" stroke="#595959" stroke-width="4"/>
<rect x="2280" y="194" width="296" height="96" fill="#79FFC7" stroke="#595959" stroke-width="4"/>
<rect x="2280" y="98" width="296" height="96" fill="#79FFC7" stroke="#595959" stroke-width="4"/>
<rect x="2280" y="290" width="296" height="96" fill="#79FFC7" stroke="#595959" stroke-width="4"/>
<rect x="2280" y="386" width="296" height="96" fill="#79FFC7" stroke="#595959" stroke-width="4"/>
<rect x="1854" y="194" width="296" height="96" fill="white" stroke="#595959" stroke-width="4"/>
<rect x="1854" y="290" width="296" height="96" fill="white" stroke="#595959" stroke-width="4"/>
<path d="M2173.29 52.2929C2172.9 52.6834 2172.9 53.3166 2173.29 53.7071L2179.66 60.0711C2180.05 60.4616 2180.68 60.4616 2181.07 60.0711C2181.46 59.6806 2181.46 59.0474 2181.07 58.6569L2175.41 53L2181.07 47.3432C2181.46 46.9526 2181.46 46.3195 2181.07 45.9289C2180.68 45.5384 2180.05 45.5384 2179.66 45.9289L2173.29 52.2929ZM2269 52L2174 52L2174 54L2269 54L2269 52Z" fill="black"/>
<path d="M2105.85 594.35V599.05H2102.2V590.9H2120.75C2120.08 588.833 2119.5 587.15 2119 585.85L2123 585.05C2123.17 585.417 2123.65 586.933 2124.45 589.6L2124.85 590.9H2141.7V599.15H2138V594.35H2105.85ZM2118.15 599.3C2113.48 602.467 2108.68 605.183 2103.75 607.45L2102.2 604.1C2104.43 603.2 2106.82 602.05 2109.35 600.65C2111.92 599.25 2114.27 597.833 2116.4 596.4L2118.15 599.3ZM2127.15 596.4L2135.55 600.7C2137.95 602 2140.15 603.15 2142.15 604.15L2140.5 607.3C2138.7 606.233 2136.3 604.917 2133.3 603.35C2130.33 601.75 2127.73 600.367 2125.5 599.2L2127.15 596.4ZM2143 618.85C2140.73 617.983 2138.58 617.033 2136.55 616V631.3H2132.9V629.15H2111.05V631.3H2107.4V616C2105.23 617.067 2103.05 618.017 2100.85 618.85L2099.4 615.45C2104.23 613.617 2108.33 611.667 2111.7 609.6C2115.1 607.5 2117.98 605.15 2120.35 602.55H2123.65C2126.08 605.217 2128.98 607.6 2132.35 609.7C2135.75 611.767 2139.8 613.667 2144.5 615.4L2143 618.85ZM2135.25 615.35C2129.72 612.417 2125.3 609.167 2122 605.6C2118.5 609.3 2114.05 612.55 2108.65 615.35H2135.25ZM2111.05 618.8V625.85H2132.9V618.8H2111.05ZM2155 587.4H2188.9V599.15H2155V587.4ZM2185.25 592.1V589.85H2158.75V592.1H2185.25ZM2158.75 594.4V596.75H2185.25V594.4H2158.75ZM2149.75 604.4V601.75H2194.2V604.4H2149.75ZM2190.4 624.8H2173.8V627.45H2193.7V630.1H2150.25V627.45H2170.2V624.8H2153.55V622.2H2170.2V619.5H2155V607.1H2188.95V619.5H2173.8V622.2H2190.4V624.8ZM2170.2 612.05V609.5H2158.7V612.05H2170.2ZM2173.8 612.05H2185.25V609.5H2173.8V612.05ZM2158.7 614.45V617H2170.2V614.45H2158.7ZM2173.8 614.45V617H2185.25V614.45H2173.8ZM2227.15 592.9C2226.12 594.8 2225.03 596.617 2223.9 598.35V631.45H2219.9V603.95C2215.23 609.85 2209.47 615.45 2202.6 620.75L2200.05 617.25C2205.05 613.75 2209.45 609.933 2213.25 605.8C2217.08 601.667 2220.22 597.367 2222.65 592.9H2201.55V589H2242.75V592.9H2227.15ZM2228.6 603.45C2235.33 609.183 2240.43 613.7 2243.9 617L2241.1 620.3C2238.27 617.367 2233.32 612.767 2226.25 606.5L2228.6 603.45ZM2273.8 585.5C2276.13 588.033 2279.05 590.55 2282.55 593.05C2286.08 595.517 2289.93 597.8 2294.1 599.9L2292.4 603.55C2288.4 601.417 2284.58 599.067 2280.95 596.5C2277.35 593.933 2274.37 591.4 2272 588.9C2269.7 591.333 2266.77 593.817 2263.2 596.35C2259.67 598.85 2255.82 601.25 2251.65 603.55L2249.9 599.85C2254.07 597.75 2257.9 595.467 2261.4 593C2264.9 590.533 2267.8 588.033 2270.1 585.5H2273.8ZM2260.4 598.75H2283.45V602.4H2260.4V598.75ZM2273.25 631.45V607.25H2290.15V620.05C2290.15 621.617 2289.97 622.833 2289.6 623.7C2289.23 624.533 2288.62 625.133 2287.75 625.5C2286.88 625.833 2285.65 626 2284.05 626H2279.9L2279.2 622.4H2282.75C2284.32 622.4 2285.35 622.183 2285.85 621.75C2286.35 621.283 2286.6 620.4 2286.6 619.1V610.7H2276.8V631.45H2273.25ZM2253.95 625.25V607.45H2268.5V625.25H2253.95ZM2265.05 621.7V610.9H2257.45V621.7H2265.05ZM2323.85 585.6V595.4H2341V616H2323.85V631.4H2320V616H2303V595.4H2320V585.6H2323.85ZM2306.9 599.3V612.15H2320V599.3H2306.9ZM2323.85 599.3V612.15H2337.1V599.3H2323.85Z" fill="black"/>
<path d="M1962.94 461.218L1962.39 458.404C1964.41 455.548 1966.75 451.11 1969.41 445.09L1971.8 446.266C1969.14 452.034 1967.17 455.954 1965.88 458.026L1970.67 457.396C1971.48 455.94 1972.15 454.624 1972.68 453.448L1975.2 454.96C1973.33 458.712 1970.57 463.29 1966.93 468.694L1973.65 467.56L1973.78 470.584L1963.57 472.222L1962.98 469.156C1965.17 466.356 1967.18 463.388 1969.03 460.252L1962.94 461.218ZM1998.6 449.164C1993.42 449.864 1985.68 450.48 1975.37 451.012L1975.16 448.282C1978.97 448.142 1983.03 447.904 1987.34 447.568C1991.68 447.232 1995.29 446.854 1998.18 446.434L1998.6 449.164ZM1999.56 465.208H1982.72C1982.41 466.384 1982.11 467.42 1981.8 468.316H1996.29V471.004C1994.78 473.524 1992.8 475.75 1990.37 477.682C1992.69 478.97 1995.74 480.02 1999.52 480.832L1998.47 483.772C1994.24 482.568 1990.79 481.07 1988.1 479.278C1984.93 481.294 1981.18 482.876 1976.84 484.024L1975.79 481.252C1979.82 480.272 1983.18 479.026 1985.87 477.514C1983.94 475.834 1982.25 473.678 1980.79 471.046C1979.11 475.05 1976.58 478.872 1973.19 482.512L1971.09 480.37C1971.7 479.754 1972.15 479.278 1972.43 478.942L1962.86 480.664L1962.44 477.43L1974.03 475.372L1974.11 476.968C1975.48 475.232 1976.63 473.426 1977.56 471.55C1978.48 469.646 1979.25 467.532 1979.87 465.208H1974.15V462.688H1980.45C1980.71 461.26 1980.9 460.084 1981.04 459.16H1975.54V456.598H1979.19C1978.72 455.45 1978.03 454.008 1977.14 452.272L1979.32 451.264C1979.68 451.908 1980.09 452.692 1980.54 453.616C1980.99 454.512 1981.32 455.226 1981.55 455.758L1979.66 456.598H1991.25C1992.45 454.47 1993.46 452.44 1994.27 450.508L1996.62 451.348C1996.18 452.524 1995.32 454.274 1994.06 456.598H1998.68V459.16H1983.86C1983.72 460.084 1983.52 461.26 1983.27 462.688H1999.56V465.208ZM1986.59 456.43C1985.72 454.162 1985.07 452.566 1984.65 451.642L1986.92 450.76C1987.23 451.404 1987.58 452.188 1987.97 453.112C1988.36 454.036 1988.7 454.862 1988.98 455.59L1986.59 456.43ZM1988.06 476.086C1990.07 474.658 1991.74 472.936 1993.05 470.92H1983.6C1984.86 473.02 1986.35 474.742 1988.06 476.086ZM2041.48 449.92V452.944H2018.88C2017.43 456.164 2015.72 459.188 2013.76 462.016V483.772H2010.65V465.964C2009.08 467.784 2007.42 469.52 2005.65 471.172L2004.18 467.938C2008.78 463.654 2012.43 458.656 2015.15 452.944H2004.94V449.92H2016.45C2017.04 448.492 2017.6 446.924 2018.13 445.216L2021.57 445.636C2021.01 447.456 2020.52 448.884 2020.1 449.92H2041.48ZM2030.9 466.93V468.232H2041.48V471.13H2030.9V478.564C2030.9 479.796 2030.74 480.748 2030.43 481.42C2030.13 482.092 2029.58 482.568 2028.8 482.848C2028.04 483.156 2026.93 483.31 2025.48 483.31H2020.77L2020.14 480.328H2024.43C2025.35 480.328 2026.04 480.258 2026.49 480.118C2026.96 479.978 2027.28 479.74 2027.45 479.404C2027.62 479.04 2027.7 478.508 2027.7 477.808V471.13H2015.9V468.232H2027.7V465.544L2034.21 460.966H2018.84V458.068H2039.21V460.966L2030.9 466.93Z" fill="#8E8E8E"/>
</svg>
