<svg width="726" height="642" viewBox="0 0 726 642" fill="none" xmlns="http://www.w3.org/2000/svg">
<rect x="2" y="2" width="296" height="96" fill="#FFC0C1" stroke="#595959" stroke-width="4"/>
<rect x="2" y="98" width="296" height="96" fill="#9DD6FF" stroke="#595959" stroke-width="4"/>
<rect x="428" y="2" width="296" height="96" fill="#D7C8FF" stroke="#595959" stroke-width="4"/>
<rect x="2" y="194" width="296" height="96" fill="#FCFFC2" stroke="#595959" stroke-width="4"/>
<rect x="2" y="290" width="296" height="96" fill="#FEE7CB" stroke="#595959" stroke-width="4"/>
<path d="M321.293 52.2929C320.902 52.6834 320.902 53.3166 321.293 53.7071L327.657 60.0711C328.047 60.4616 328.681 60.4616 329.071 60.0711C329.462 59.6806 329.462 59.0474 329.071 58.6569L323.414 53L329.071 47.3432C329.462 46.9526 329.462 46.3195 329.071 45.9289C328.681 45.5384 328.047 45.5384 327.657 45.9289L321.293 52.2929ZM417 52L322 52L322 54L417 54L417 52Z" fill="black"/>
<path d="M342.25 609.35L336.1 611.45V625.65C336.1 626.983 335.933 628 335.6 628.7C335.3 629.4 334.767 629.883 334 630.15C333.233 630.45 332.15 630.6 330.75 630.6H326.6L325.9 626.85H329.6C330.733 626.85 331.483 626.7 331.85 626.4C332.25 626.067 332.45 625.383 332.45 624.35V612.65L325.85 614.85L325.25 611.05C326.483 610.717 328.883 609.967 332.45 608.8V598.7H326.65V595.1H332.45V585.75H336.1V595.1H341.95V598.7H336.1V607.55C337.533 607.05 339.383 606.367 341.65 605.5L341.95 607.6L342.25 609.35ZM370 612.95L370.3 616.7L362.6 617.6V631.35H358.85V618L340.5 620.1L340.25 616.35L358.85 614.2V585.8H362.6V613.8L370 612.95ZM353.9 600.1C349.867 596.333 346.883 593.65 344.95 592.05L347.25 589.3C349.65 591.333 352.683 593.983 356.35 597.25L353.9 600.1ZM352.25 612.2C347.717 608.233 344.567 605.517 342.8 604.05L345.1 601.35C347.4 603.15 350.583 605.8 354.65 609.3L352.25 612.2ZM418.2 595.35C418.1 598.85 417.95 603.483 417.75 609.25C417.583 615.017 417.417 619.8 417.25 623.6C417.183 625.167 416.917 626.4 416.45 627.3C416.017 628.167 415.317 628.783 414.35 629.15C413.383 629.517 412.05 629.7 410.35 629.7H405.1L404.35 626H408.85C410.15 626 411.117 625.883 411.75 625.65C412.417 625.417 412.883 625.017 413.15 624.45C413.45 623.85 413.633 622.95 413.7 621.75C413.8 620.383 413.933 617.017 414.1 611.65C414.3 606.283 414.45 602.1 414.55 599.1H406.4C406.167 605.533 405.833 610.467 405.4 613.9C404.967 617.3 404.167 620.333 403 623C401.867 625.667 400.083 628.55 397.65 631.65L394.3 629.35C396.667 626.517 398.4 623.917 399.5 621.55C400.633 619.15 401.433 616.317 401.9 613.05C402.367 609.75 402.683 605.1 402.85 599.1H397.4V595.35H402.9L403.1 585.65H406.65C406.65 587.917 406.6 591.15 406.5 595.35H418.2ZM378.3 589.55H395.7V593.25H378.3V589.55ZM394.1 626.25L393.25 623.9L377.4 625.65L376.8 622.45C378.167 620.117 379.483 617.433 380.75 614.4C382.017 611.367 383.033 608.5 383.8 605.8H376.2V602.25H397.25V605.8H387.6C386.9 608.2 385.9 611.033 384.6 614.3C383.333 617.567 382.25 620.05 381.35 621.75L392 620.65C390.7 617.083 389.483 614 388.35 611.4L391.65 610.15C392.95 613.217 394.867 618.017 397.4 624.55L394.1 626.25Z" fill="black"/>
<path d="M110.94 461.218L110.394 458.404C112.41 455.548 114.748 451.11 117.408 445.09L119.802 446.266C117.142 452.034 115.168 455.954 113.88 458.026L118.668 457.396C119.48 455.94 120.152 454.624 120.684 453.448L123.204 454.96C121.328 458.712 118.57 463.29 114.93 468.694L121.65 467.56L121.776 470.584L111.57 472.222L110.982 469.156C113.166 466.356 115.182 463.388 117.03 460.252L110.94 461.218ZM146.598 449.164C141.418 449.864 133.676 450.48 123.372 451.012L123.162 448.282C126.97 448.142 131.03 447.904 135.342 447.568C139.682 447.232 143.294 446.854 146.178 446.434L146.598 449.164ZM147.564 465.208H130.722C130.414 466.384 130.106 467.42 129.798 468.316H144.288V471.004C142.776 473.524 140.802 475.75 138.366 477.682C140.69 478.97 143.742 480.02 147.522 480.832L146.472 483.772C142.244 482.568 138.786 481.07 136.098 479.278C132.934 481.294 129.182 482.876 124.842 484.024L123.792 481.252C127.824 480.272 131.184 479.026 133.872 477.514C131.94 475.834 130.246 473.678 128.79 471.046C127.11 475.05 124.576 478.872 121.188 482.512L119.088 480.37C119.704 479.754 120.152 479.278 120.432 478.942L110.856 480.664L110.436 477.43L122.028 475.372L122.112 476.968C123.484 475.232 124.632 473.426 125.556 471.55C126.48 469.646 127.25 467.532 127.866 465.208H122.154V462.688H128.454C128.706 461.26 128.902 460.084 129.042 459.16H123.54V456.598H127.194C126.718 455.45 126.032 454.008 125.136 452.272L127.32 451.264C127.684 451.908 128.09 452.692 128.538 453.616C128.986 454.512 129.322 455.226 129.546 455.758L127.656 456.598H139.248C140.452 454.47 141.46 452.44 142.272 450.508L144.624 451.348C144.176 452.524 143.322 454.274 142.062 456.598H146.682V459.16H131.856C131.716 460.084 131.52 461.26 131.268 462.688H147.564V465.208ZM134.586 456.43C133.718 454.162 133.074 452.566 132.654 451.642L134.922 450.76C135.23 451.404 135.58 452.188 135.972 453.112C136.364 454.036 136.7 454.862 136.98 455.59L134.586 456.43ZM136.056 476.086C138.072 474.658 139.738 472.936 141.054 470.92H131.604C132.864 473.02 134.348 474.742 136.056 476.086ZM189.48 449.92V452.944H166.884C165.428 456.164 163.72 459.188 161.76 462.016V483.772H158.652V465.964C157.084 467.784 155.418 469.52 153.654 471.172L152.184 467.938C156.776 463.654 160.43 458.656 163.146 452.944H152.94V449.92H164.448C165.036 448.492 165.596 446.924 166.128 445.216L169.572 445.636C169.012 447.456 168.522 448.884 168.102 449.92H189.48ZM178.896 466.93V468.232H189.48V471.13H178.896V478.564C178.896 479.796 178.742 480.748 178.434 481.42C178.126 482.092 177.58 482.568 176.796 482.848C176.04 483.156 174.934 483.31 173.478 483.31H168.774L168.144 480.328H172.428C173.352 480.328 174.038 480.258 174.486 480.118C174.962 479.978 175.284 479.74 175.452 479.404C175.62 479.04 175.704 478.508 175.704 477.808V471.13H163.902V468.232H175.704V465.544L182.214 460.966H166.842V458.068H187.212V460.966L178.896 466.93Z" fill="#8E8E8E"/>
</svg>
